<ttFont>
<head>
    <!-- Most of this table will be recalculated by the compiler -->
    <tableVersion value="1.0"/>
    <fontRevision value="2.004"/>
    <checkSumAdjustment value="0xffb91f2a"/>
    <magicNumber value="0x5f0f3cf5"/>
    <flags value="00000000 00000011"/>
    <unitsPerEm value="1000"/>
    <created value="Thu Oct  8 10:00:20 2009"/>
    <modified value="Thu Oct  8 10:00:20 2009"/>
    <xMin value="-473"/>
    <yMin value="-313"/>
    <xMax value="1504"/>
    <yMax value="1155"/>
    <macStyle value="00000000 00000010"/>
    <lowestRecPPEM value="3"/>
    <fontDirectionHint value="2"/>
    <indexToLocFormat value="0"/>
    <glyphDataFormat value="0"/>
  </head>
          <CharString index="0">
            774 344 rmoveto
            211 45 -115 161 -173 hhcurveto
            -173 -183 -161 -211 -45 hvcurveto
            -208 -44 116 -158 172 hhcurveto
            173 183 158 208 44 hvcurveto
            -93 15 rmoveto
            -188 -40 -133 -123 -119 hhcurveto
            -119 -81 123 188 40 hvcurveto
            183 39 135 106 114 hhcurveto
            114 89 -107 -182 -39 hvcurveto
            return
          </CharString>
          <CharString index="1">
            530 220 rmoveto
            131 28 -77 110 -127 hhcurveto
            -124 -125 -108 -133 -28 63 callgsubr
            84 -99 121 hhcurveto
            124 124 101 130 28 hvcurveto
            -81 10 rmoveto
            -116 -25 -82 -57 -73 hhcurveto
            -77 -54 60 113 24 hvcurveto
            117 25 85 49 68 hhcurveto
            72 61 -51 -115 -24 hvcurveto
            return
          </CharString>
          <CharString index="2">
            hintmask 11000000
            -107 callsubr
            return
          </CharString>
          <CharString index="3">
            hstemhm
            -103 callgsubr
            return
          </CharString>
          <CharString index="4">
            657 hmoveto
            -120 694 rlineto
            -92 hlineto
            -416 -37 callgsubr
            79 hlineto
            118 199 rlineto
            297 hlineto
            35 -199 rlineto
            -46 258 rmoveto
            -249 hlineto
            201 362 rlineto
            return
          </CharString>
          <CharString index="5">
            16 76 rlineto
            -100 hlineto
            -282 -2 62 callsubr
            339 hlineto
            13 65 rlineto
            -339 hlineto
            49 231 rlineto
            38 hlineto
            244 -2 rlineto
            86 hlineto
            15 70 rlineto
            -464 -26 callgsubr
            return
          </CharString>
          <CharString index="6">
            80 callgsubr
            -29 hvcurveto
            -1 vlineto
            6 -42 25 callsubr
            hlineto
            27 22 -26 callsubr
            11 -1 -7 9 32 callgsubr
            5 24 19 12 37 19 rlinecurve
            8 4 5 3 5 2 20 12 15 19 4 20 rrcurveto
            endchar
          </CharString>
          <CharString index="7">
            623 38 rmoveto
            56 262 rlineto
            -217 108 callsubr
            133 hlineto
            -34 -158 rlineto
            -13 -45 -47 -7 -45 hhcurveto
            -65 -53 34 51 -31 hvcurveto
            -34 58 -7 73 16 74 16 75 37 73 59 57 rrcurveto
            51 53 67 34 65 hhcurveto
            35 35 -4 -11 29 hvcurveto
            32 -12 25 -19 23 -23 33 88 rcurveline
            -28 16 -31 14 -33 8 rrcurveto
            8 -34 -35 3 -36 hhcurveto
            -89 -93 -39 -66 -75 hvcurveto
            -78 -68 -53 -91 -20 -94 -20 -93 15 -91 48 -69 rrcurveto
            -66 47 77 -39 89 hhcurveto
            75 77 17 32 75 hvcurveto
            return
          </CharString>
          <CharString index="8">
            -66 callsubr
            7 -42 25 callsubr
            hlineto
            27 21 -26 callsubr
            12 -1 -7 8 -72 callgsubr
            -8 -41 -4 -19 rcurveline
            -1 27 vlineto
            2 69 callgsubr
            18 12 37 19 rlinecurve
            8 4 5 3 5 2 20 12 15 19 4 20 rrcurveto
            endchar
          </CharString>
          <CharString index="9">
            580 -42 callsubr
            -18 -85 rlineto
            -1 24 vlineto
            -40 -30 rlineto
            30 -32 -43 17 -48 hhcurveto
            -61 -64 -27 -44 -50 hvcurveto
            -54 -46 -36 -62 -13 -63 -13 -61 11 -58 34 -43 rrcurveto
            -43 33 53 -25 60 hhcurveto
            60 63 25 43 51 hvcurveto
            51 43 37 58 13 61 13 63 -10 62 -33 46 -2 2 rcurveline
            -48 -161 rmoveto
            -9 -45 -20 -46 -37 -35 rrcurveto
            -31 -32 -42 -17 -40 hhcurveto
            -40 -35 17 31 -19 hvcurveto
            -21 35 0 46 9 45 9 43 19 43 36 33 rrcurveto
            30 33 41 16 40 hhcurveto
            40 35 -16 -30 19 hvcurveto
            21 -33 2 -43 -9 -43 rrcurveto
            return
          </CharString>
          <CharString index="10">
            rmoveto
            -97 134 rlineto
            -60 hlineto
            -155 -134 rlineto
            59 hlineto
            118 97 76 -97 rlineto
            return
          </CharString>
          <CharString index="11">
            -18 -85 1 -1 rlineto
            23 hlineto
            -37 -28 rlineto
            32 -42 -51 18 -58 hhcurveto
            -88 -90 -42 -67 -72 hvcurveto
            -78 -73 -51 -94 -21 -96 -20 -95 12 -92 47 -72 rrcurveto
            -65 44 73 -42 87 hhcurveto
            88 91 42 65 72 hvcurveto
            77 72 52 92 20 95 rrcurveto
            -92 17 rmoveto
            -17 -79 -35 -80 -60 -64 rrcurveto
            -53 -49 -66 -37 -66 hhcurveto
            -65 -50 37 53 -27 hvcurveto
            -32 64 -1 80 17 79 15 73 35 73 57 58 rrcurveto
            50 50 66 33 63 hhcurveto
            64 51 -33 -50 29 hvcurveto
            33 -58 3 -73 -15 -73 rrcurveto
            return
          </CharString>
          <CharString index="12">
            628 -27 callsubr
            -82 hlineto
            -131 -616 rlineto
            -1 hlineto
            -155 517 -4 16 -7 24 -4 7 rlinecurve
            -14 52 rlineto
            -132 81 callsubr
            131 616 rlineto
            1 hlineto
            154 -517 5 -16 7 -24 3 -7 rlinecurve
            15 -52 rlineto
            return
          </CharString>
          <CharString index="13">
            613 45 rmoveto
            9 74 -34 -20 -34 -19 -36 -11 rlinecurve
            -10 -36 -36 -2 -36 hhcurveto
            -65 -53 34 51 -31 hvcurveto
            -34 58 -7 73 16 74 16 75 37 73 59 57 rrcurveto
            51 53 67 34 65 hhcurveto
            32 31 -3 -9 28 hvcurveto
            29 -9 25 -16 22 -18 34 88 rcurveline
            -28 12 -30 10 -32 5 rrcurveto
            6 -31 -32 2 -33 hhcurveto
            -89 -93 -39 -66 -75 hvcurveto
            -78 -68 -53 -91 -20 -94 -20 -93 15 -91 48 -69 rrcurveto
            -66 47 77 -39 89 hhcurveto
            36 36 2 9 37 hvcurveto
            37 9 36 18 35 18 rrcurveto
            return
          </CharString>
          <CharString index="14">
            449 hmoveto
            63 297 rlineto
            74 16 -2 84 -121 -85 callgsubr
            return
          </CharString>
          <CharString index="15">
            rmoveto
            -111 hlineto
            -201 -122 rlineto
            89 hlineto
            endchar
          </CharString>
          <CharString index="16">
            rmoveto
            16 77 rlineto
            -77 hlineto
            -16 -78 rlineto
            23 hlineto
            -49 -114 rlineto
            38 hlineto
            endchar
          </CharString>
          <CharString index="17">
            40 vstem
            768 347 rmoveto
            192 41 -122 155 -192 hhcurveto
            -192 -188 -155 -192 -41 hvcurveto
            -192 -41 122 -155 192 hhcurveto
            192 188 155 192 41 hvcurveto
            -40 hmoveto
            -169 -36 -166 -138 -170 hhcurveto
            -169 -109 138 169 36 hvcurveto
            170 36 167 137 169 hhcurveto
            170 108 -137 -170 -36 hvcurveto
            return
          </CharString>
          <CharString index="18">
            -97 callsubr
            164 284 33 callgsubr
            -26 callsubr
            11 -1 -7 9 hvcurveto
            7 -6 1 -10 -2 -13 -2 -8 -8 -7 -8 -55 callgsubr
            4 3 6 2 19 12 15 19 5 20 rrcurveto
            endchar
          </CharString>
          <CharString index="19">
            rmoveto
            -89 172 rlineto
            -60 hlineto
            -161 -172 rlineto
            59 hlineto
            122 123 70 -123 rlineto
            return
          </CharString>
          <CharString index="20">
            646 -42 callsubr
            rlineto
            hintmask 0000000101000000
            -18 -85 rlineto
            -1 23 vlineto
            -47 -33 rlineto
            hintmask 1000010010000000
            7 33 -31 callsubr
            -63 -298 rlineto
            -56 -12 -62 -42 -62 hhcurveto
            -33 -21 1 12 -12 hvcurveto
            hintmask 0000100000000000
            -12 9 0 17 5 23 rrcurveto
            hintmask 0000001000000000
            71 334 rlineto
            -84 hlineto
            hintmask 0000100000000000
            -71 -334 rlineto
            hintmask 1000010101000000
            -8 -39 0 -30 15 -23 rrcurveto
            -20 14 26 -9 32 hhcurveto
            74 71 21 37 51 hvcurveto
            -10 -47 rlineto
            80 hlineto
            79 371 rlineto
            return
          </CharString>
          <CharString index="21">
            -4 -38 -18 -28 -37 -9 -41 -4 -19 rcurveline
            1 -1 rlineto
            27 hlineto
            1 1 4 19 return
          </CharString>
          <CharString index="22">
            hvcurveto
            64 -1 rmoveto
            47 10 -42 38 -65 hhcurveto
            -68 -56 -41 -42 -9 hvcurveto
            -47 -10 42 -38 65 hhcurveto
            68 56 41 42 9 hvcurveto
            return
          </CharString>
          <CharString index="23">
            rmoveto
            -98 134 rlineto
            -60 hlineto
            -154 -134 rlineto
            59 hlineto
            117 97 77 -97 rlineto
            return
          </CharString>
          <CharString index="24">
            417 383 rmoveto
            16 72 -73 -1 -73 -36 -54 -59 rlinecurve
            20 91 rlineto
            -74 hlineto
            -96 -450 rlineto
            80 hlineto
            45 213 23 105 95 64 91 1 rlinecurve
            return
          </CharString>
          <CharString index="25">
            814 344 rmoveto
            26 122 -31 107 -65 64 70 89 rcurveline
            -51 34 -66 -83 rlineto
            21 -36 -52 18 -58 hhcurveto
            -186 -191 -164 -208 -44 hvcurveto
            -28 -133 44 -103 55 -52 -70 -88 rcurveline
            52 -34 66 83 rlineto
            -25 42 47 -14 56 hhcurveto
            186 191 161 205 43 hvcurveto
            -165 274 rmoveto
            -398 -499 -42 61 -5 82 17 82 rlinecurve
            197 42 145 110 129 hhcurveto
            35 38 -8 -25 39 hvcurveto
            74 -274 rmoveto
            -192 -41 -144 -109 -130 hhcurveto
            -46 -35 13 20 -31 hvcurveto
            397 497 53 -77 -11 -98 -12 -54 rlinecurve
            return
          </CharString>
          <CharString index="26">
            -11 callsubr
            -57 -60 -27 -45 -46 hvcurveto
            67 311 rlineto
            -80 hlineto
            -148 -694 -90 callgsubr
            return
          </CharString>
          <CharString index="27">
            hlineto
            -148 -37 callgsubr
            return
          </CharString>
          <CharString index="28">
            631 30 callsubr
            -64 -301 rlineto
            -344 hlineto
            64 301 -60 callsubr
            96 hlineto
            70 328 rlineto
            344 hlineto
            128 callsubr
            return
          </CharString>
          <CharString index="29">
            -97 callsubr
            endchar
          </CharString>
          <CharString index="30">
            742 -11 65 0 63 0 63 39 59 118 65 -63 63 hstemhm
            72 77 233 77 -71 89 -10 89 70 89 hintmask 0000010001000000
            759 219 rmoveto
            7 36 14 70 -22 59 rrcurveto
            58 -21 -51 19 -46 hhcurveto
            -38 -63 -11 -65 -72 hvcurveto
            49 -23 -43 27 -62 hhcurveto
            -65 -50 -16 -28 -56 hvcurveto
            -8 -71 rlineto
            25 38 54 27 73 hhcurveto
            hintmask 0000000010000000
            12 36 0 -43 15 hvcurveto
            hintmask 0100001100000000
            11 -27 -3 -15 -14 -65 -142 -1 -149 -39 -19 -91 rrcurveto
            hintmask 1001000101100000
            -29 -6 -5 -99 103 hhcurveto
            30 139 0 75 71 hvcurveto
            -39 26 51 -36 75 hhcurveto
            55 57 19 30 47 hvcurveto
            9 69 rlineto
            -48 -67 -63 -5 -24 hhcurveto
            -77 -50 66 99 16 hvcurveto
            250 59 rmoveto
            hintmask 0101101010100000
            -232 hlineto
            68 32 60 50 57 hhcurveto
            39 49 -24 -94 -5 hvcurveto
            -347 -148 rmoveto
            -5 -21 -5 -23 -38 -17 rrcurveto
            -12 -30 -38 -3 -17 hhcurveto
            -62 -25 31 33 7 hvcurveto
            6 28 26 15 58 14 rrcurveto
            10 42 41 5 41 hhcurveto
            hintmask 0010000000000000
            6 1 -1 -9 -1 hvcurveto
            -1 -21 -1 -2 -5 -27 rrcurveto
            endchar
          </CharString>
          <CharString index="31">
            -36 -31 hhcurveto
            -23 -20 15 12 return
          </CharString>
          <CharString index="32">
            191 hmoveto
            148 694 -60 callsubr
            return
          </CharString>
          <CharString index="33">
            rmoveto
            21 96 -18 callgsubr
            return
          </CharString>
          <CharString index="34">
            223 rmoveto
            12 56 3 50 -23 54 rrcurveto
            63 -26 -32 17 -47 hhcurveto
            -38 -76 -11 -71 -77 hvcurveto
            134 39 90 99 107 hhcurveto
            20 36 -1 -20 47 hvcurveto
            13 63 rlineto
            18 -44 -38 2 -22 hhcurveto
            -144 -160 -140 -215 -46 hvcurveto
            -274 -58 106 -69 94 hhcurveto
            61 49 22 45 50 hvcurveto
            return
          </CharString>
          <CharString index="35">
            -25 callgsubr
            hintmask 00010000
            -63 callsubr
            hintmask 00001000
            16 -22 -19 15 -27 hhcurveto
            hintmask 00010000
            -51 -58 -3 callsubr
            hintmask 00001000
            -15 callgsubr
            19 -15 -12 15 hvcurveto
            hintmask 00010000
            -16 21 -8 callgsubr
            hintmask 00001000
            -25 callsubr
          </CharString>
          <CharString index="36">
            516 hmoveto
            15 70 rlineto
            -44 hlineto
            -244 -2 rlineto
            -38 hlineto
            134 626 -60 callsubr
            return
          </CharString>
          <CharString index="37">
            795 -27 callsubr
            -120 hlineto
            -207 -342 -40 -67 -84 -138 -22 -49 rlinecurve
            -1 hlineto
            -1 41 -21 121 -9 48 -60 341 rcurveline
            -8 45 rlineto
            -120 81 callsubr
            131 616 25 callsubr
            -51 26 -149 5 -28 51 -282 rcurveline
            15 -84 rlineto
            76 hlineto
            212 352 23 37 95 158 23 47 rlinecurve
            1 hlineto
            -131 -616 rlineto
            return
          </CharString>
          <CharString index="38">
            -25 callgsubr
            hintmask 00010000
            -22 -5 -14 -76 callsubr
            -15 hvcurveto
            hintmask 00001000
            -20 callgsubr
            hintmask 00010000
            -47 callgsubr
            hintmask 00001000
            22 4 -73 callgsubr
            hintmask 00010000
            -17 callgsubr
            hintmask 00001000
            51 return
          </CharString>
          <CharString index="39">
            -1 59 -24 -9 -24 -6 -22 1 rlinecurve
            -28 2 -22 6 5 30 return
          </CharString>
          <CharString index="40">
            1000 -22 65 -43 76 252 65 163 70 -2 70 -43 65 hstemhm
            997 93 hintmask 01110010
            956 hmoveto
            16 76 rlineto
            -98 hlineto
            -279 -2 54 254 rlineto
            334 hlineto
            14 65 rlineto
            -334 hlineto
            49 233 rlineto
            38 hlineto
            hintmask 00001010
            241 -2 rlineto
            84 hlineto
            15 70 rlineto
            -406 hlineto
            -11 -24 0 11 -50 hvcurveto
            hintmask 10000100
            9 -37 -23 2 -17 hhcurveto
            -181 -194 -160 -212 -45 hvcurveto
            -210 -45 129 -156 178 hhcurveto
            13 21 0 11 49 hvcurveto
            hintmask 01000000
            11 54 25 0 10 hhcurveto
            24 346 rmoveto
            -27 -119 rlineto
            hintmask 10010100
            -139 -30 -16 -45 -104 hhcurveto
            -144 -77 146 170 36 hvcurveto
            164 35 138 128 141 hhcurveto
            84 10 -30 -65 -6 hvcurveto
            -3 -32 -18 -87 -19 -91 rrcurveto
            endchar
          </CharString>
          <CharString index="41">
            rmoveto
            5 24 -5 21 -15 14 rrcurveto
            15 -18 38 callgsubr
            return
          </CharString>
          <CharString index="42">
            118 25 -50 84 -73 hhcurveto
            -75 -87 -85 -116 -25 hvcurveto
            -119 -25 52 -83 74 hhcurveto
            74 85 86 115 25 hvcurveto
            return
          </CharString>
          <CharString index="43">
            162 hmoveto
            71 callsubr
            -80 hlineto
            -94 -444 rlineto
            return
          </CharString>
          <CharString index="44">
            -22 -4 -15 -76 callsubr
            -14 hvcurveto
            return
          </CharString>
          <CharString index="45">
            799 -11 65 165 59 118 65 hstem
            683 83 vstem
            816 219 rmoveto
            7 36 14 70 -22 59 rrcurveto
            58 -21 -51 19 -46 hhcurveto
            -71 -73 -40 -57 -49 hvcurveto
            45 -21 -51 52 -86 hhcurveto
            -118 -122 -104 -132 -28 hvcurveto
            -133 -28 78 -103 118 hhcurveto
            58 75 25 74 69 hvcurveto
            -57 25 61 -42 79 hhcurveto
            55 57 19 30 47 hvcurveto
            9 69 rlineto
            -48 -67 -63 -5 -24 hhcurveto
            -77 -50 66 99 16 hvcurveto
            250 59 rmoveto
            -232 hlineto
            68 32 60 50 57 hhcurveto
            39 49 -24 -94 -5 hvcurveto
            -331 -48 rmoveto
            -120 -26 -80 -56 -70 hhcurveto
            -73 -55 59 117 25 hvcurveto
            115 24 82 51 70 hhcurveto
            67 61 -48 -118 -25 hvcurveto
            endchar
          </CharString>
          <CharString index="46">
            -96 hlineto
            -99 -463 -14 -67 14 -64 38 -47 rlinecurve
            -48 40 60 -27 68 hhcurveto
            68 70 27 48 58 hvcurveto
            57 47 41 64 14 67 rrcurveto
            return
          </CharString>
          <CharString index="47">
            rlineto
            -54 callgsubr
            return
          </CharString>
          <CharString index="48">
            -78 -37 48 66 14 hvcurveto
            67 15 58 47 77 hhcurveto
            82 33 -50 -64 -14 hvcurveto
            -66 -319 rmoveto
            -93 -19 -71 -45 -66 hhcurveto
            -71 -47 48 90 19 hvcurveto
            107 23 83 33 51 hhcurveto
            57 63 -37 -103 -22 hvcurveto
            endchar
          </CharString>
          <CharString index="49">
            rmoveto
            18 85 -1 1 rlineto
            -85 hlineto
            -1 -1 return
          </CharString>
          <CharString index="50">
            687 21 -29 callgsubr
            return
          </CharString>
          <CharString index="51">
            rmoveto
            84 callgsubr
            endchar
          </CharString>
          <CharString index="52">
            -43 -8 22 -42 67 hhcurveto
            33 26 6 19 44 hvcurveto
            return
          </CharString>
          <CharString index="53">
            -20 hstemhm
            hintmask 11100000
            -107 callgsubr
            hintmask 00011000
            -33 callsubr
            return
          </CharString>
          <CharString index="54">
            457 -11 65 165 59 118 65 return
          </CharString>
          <CharString index="55">
            181 rmoveto
            14 63 -23 73 -94 37 67 18 75 54 15 75 rrcurveto
            92 20 -68 83 -113 hhcurveto
            -117 -101 -85 -90 -20 hvcurveto
            -15 -75 51 -54 59 -18 -114 -38 -50 -76 -13 -59 rrcurveto
            return
          </CharString>
          <CharString index="56">
            -98 callgsubr
            71 -68 86 hhcurveto
            90 99 71 109 25 hvcurveto
            -42 150 33 callgsubr
            32 17 31 hhcurveto
            19 12 -1 -7 9 hvcurveto
            6 -6 2 -10 -2 -13 -2 -8 -8 -7 -8 -55 callgsubr
            4 3 6 2 19 12 15 19 5 20 rrcurveto
            endchar
          </CharString>
          <CharString index="57">
            774 344 rmoveto
            211 45 -115 161 -173 hhcurveto
            -173 -183 -161 -211 -45 hvcurveto
            -42 -200 106 -154 162 -11 -41 -28 -31 -38 -7 -40 6 callsubr
            6 35 33 28 39 23 158 26 153 148 40 188 rrcurveto
            -93 15 rmoveto
            -188 -40 -133 -123 -119 hhcurveto
            -119 -81 123 188 40 hvcurveto
            183 39 135 106 114 hhcurveto
            114 89 -107 -182 -39 hvcurveto
            return
          </CharString>
          <CharString index="58">
            494 -11 65 325 65 196 65 hstemhm
            83 80 257 82 -30 82 hintmask 01110100
            502 179 rmoveto
            22 101 -35 86 -61 43 86 46 32 63 8 39 rrcurveto
            82 18 -65 66 -98 hhcurveto
            -76 -110 -45 -111 -23 hvcurveto
            -117 -549 rlineto
            80 hlineto
            116 547 rlineto
            16 4 16 77 96 hhcurveto
            56 32 -33 -50 -11 hvcurveto
            -9 -46 -49 -65 -100 -2 -13 -65 rcurveline
            hintmask 10001000
            100 -2 41 -93 -22 -104 rrcurveto
            -85 -18 -56 -41 -52 hhcurveto
            -10 -27 2 13 -26 hvcurveto
            -37 -62 rlineto
            -13 29 34 -5 24 hhcurveto
            102 97 84 106 22 hvcurveto
            endchar
          </CharString>
          <CharString index="59">
            -57 callsubr
            -20 return
          </CharString>
          <CharString index="60">
            -20 hstemhm
            hintmask 11100000
            -107 callgsubr
            hintmask 00011000
            57 callgsubr
            return
          </CharString>
          <CharString index="61">
            -25 callgsubr
            hintmask 00001000
            -22 -5 -14 -76 callsubr
            -15 hvcurveto
            hintmask 00000100
            16 -21 -19 91 callgsubr
            -17 hvcurveto
            65 hlineto
            hintmask 00000100
            22 4 54 callsubr
            19 -15 27 hhcurveto
            hintmask 00000100
            51 return
          </CharString>
          <CharString index="62">
            514 -11 68 339 65 return
          </CharString>
          <CharString index="63">
            743 0 59 254 68 254 59 hstemhm
            164 93 -79 93 393 93 cntrmask 11100000
            hintmask 11101000
            83 callsubr
            -67 -313 rlineto
            -84 123 callgsubr
            hintmask 11110100
            84 hlineto
            -67 -313 41 callsubr
            54 254 rlineto
            98 hlineto
            14 68 rlineto
            hintmask 11101100
            -98 hlineto
            54 254 90 callsubr
          </CharString>
          <CharString index="64">
            rlineto
            -75 64 callgsubr
            75 hlineto
            -81 -382 rlineto
            80 hlineto
            81 382 rlineto
            return
          </CharString>
          <CharString index="65">
            445 -58 callsubr
            return
          </CharString>
          <CharString index="66">
            -85 callsubr
            endchar
          </CharString>
          <CharString index="67">
            -76 -16 -43 -61 -38 hhcurveto
            -13 -51 5 131 28 hvcurveto
            130 27 52 7 15 hhcurveto
            return
          </CharString>
          <CharString index="68">
            91 callsubr
            hintmask 11000110
            -31 callgsubr
            hintmask 10001000
            -32 callsubr
            return
          </CharString>
          <CharString index="69">
            -21 -96 rlineto
            endchar
          </CharString>
          <CharString index="70">
            162 hmoveto
            148 694 7 callgsubr
            return
          </CharString>
          <CharString index="71">
            -13 rmoveto
            17 79 -44 66 -76 27 77 36 56 65 15 69 rrcurveto
            86 18 -71 67 -103 hhcurveto
            -84 -80 -43 -63 -55 hvcurveto
            27 -57 rlineto
            87 62 79 14 37 hhcurveto
            51 44 -28 -63 -13 hvcurveto
            -8 -37 -39 -86 -110 -10 rrcurveto
            hintmask 11001000
            -20 -2 -16 -1 -19 -1 -14 -65 rcurveline
            75 hlineto
            97 14 -79 -60 -13 hvcurveto
            -79 -16 -60 -60 -76 hhcurveto
            -82 -67 45 54 -26 hvcurveto
            -17 -40 0 -2 -9 -22 rrcurveto
            -59 37 67 -41 85 hhcurveto
            126 112 98 105 22 hvcurveto
            endchar
          </CharString>
          <CharString index="72">
            -74 callsubr
            hintmask 10010000
            -38 callsubr
          </CharString>
          <CharString index="73">
            325 rmoveto
            20 95 12 88 -30 79 rrcurveto
            55 -22 -54 34 -66 hhcurveto
            -50 -75 -19 -78 -62 hvcurveto
            -64 -79 -25 -106 -15 -69 -11 -50 -24 -114 28 -81 rrcurveto
            -88 31 73 -14 44 hhcurveto
            58 77 24 83 61 hvcurveto
            54 73 23 87 17 80 rrcurveto
            -80 12 rmoveto
            -15 -68 -14 -69 -37 -65 rrcurveto
            -69 -38 -52 -23 -39 hhcurveto
            -133 43 200 94 20 hvcurveto
            13 63 11 51 26 52 rrcurveto
            69 34 49 39 57 hhcurveto
            133 -39 -181 -93 -19 hvcurveto
            endchar
          </CharString>
          <CharString index="74">
            190 509 -98 callgsubr
            72 -68 86 hhcurveto
            90 98 71 109 25 hvcurveto
            return
          </CharString>
          <CharString index="75">
            -28 -23 11 20 -18 hvcurveto
            -36 -65 rlineto
            -28 44 46 -6 26 hhcurveto
            68 74 54 92 19 hvcurveto
            return
          </CharString>
          <CharString index="76">
            rlineto
            -83 hlineto
            return
          </CharString>
          <CharString index="77">
            -20 hstemhm
            hintmask 01000000
            628 -187 rmoveto
            -1 59 rlineto
            hintmask 10111000
            -24 -9 -24 -6 -22 1 80 callsubr
            52 34 52 26 rrcurveto
            33 hlineto
            -120 694 rlineto
            -92 hlineto
            -416 -37 callgsubr
            79 hlineto
            118 199 rlineto
            297 hlineto
            35 -199 103 callgsubr
            hintmask 01010000
            33 26 6 19 44 hvcurveto
            -116 445 rmoveto
            -249 hlineto
            201 362 rlineto
            return
          </CharString>
          <CharString index="78">
            -250 -21 114 78 return
          </CharString>
          <CharString index="79">
            773 344 rmoveto
            21 96 -11 94 -48 73 -9 14 -10 13 -12 11 76 50 rcurveline
            return
          </CharString>
          <CharString index="80">
            hmoveto
            -6 callgsubr
            return
          </CharString>
          <CharString index="81">
            33 17 31 hhcurveto
            19 return
          </CharString>
          <CharString index="82">
            89 callgsubr
            17 hvcurveto
            endchar
          </CharString>
          <CharString index="83">
            1 95 callsubr
            hintmask 11000100
            -18 -42 callgsubr
            271 128 95 callsubr
            hintmask 10011000
            -18 -42 callgsubr
            endchar
          </CharString>
          <CharString index="84">
            657 21 -21 285 62 288 59 hstem
            417 87 112 87 vstem
            703 491 rmoveto
            106 23 -80 97 -142 hhcurveto
            -259 -80 callsubr
            96 hlineto
            61 285 rlineto
            163 hlineto
            141 122 97 109 23 hvcurveto
            -87 hmoveto
            -80 -17 -77 -64 -116 hhcurveto
            -142 hlineto
            61 288 rlineto
            142 hlineto
            115 51 -64 -80 -17 hvcurveto
            endchar
          </CharString>
          <CharString index="85">
            rmoveto
            14 69 rlineto
            -371 hlineto
            -14 -69 rlineto
            endchar
          </CharString>
          <CharString index="86">
            hmoveto
            63 297 rlineto
            74 16 -2 84 -121 hhcurveto
            return
          </CharString>
          <CharString index="87">
            9 rmoveto
            124 26 -68 99 -106 hhcurveto
            -13 -49 0 -40 -55 hvcurveto
            42 200 rlineto
            269 hlineto
            15 68 rlineto
            -346 hlineto
            -79 -372 rlineto
            72 hlineto
            74 47 62 5 19 hhcurveto
            41 54 -31 -126 -27 hvcurveto
            -122 -26 -80 -39 -60 hhcurveto
            -52 -63 25 67 -25 hvcurveto
            -48 -59 rlineto
            -22 11 51 -76 113 hhcurveto
            125 123 100 125 27 hvcurveto
            endchar
          </CharString>
          <CharString index="88">
            113 24 80 63 79 hhcurveto
            19 18 -4 -7 16 hvcurveto
            55 -165 rmoveto
            -116 -25 -85 -50 -71 hhcurveto
            -18 -18 3 7 -15 hvcurveto
            220 280 21 -34 0 -47 -9 -43 rlinecurve
            return
          </CharString>
          <CharString index="89">
            3 14 0 2 3 11 rrcurveto
            76 16 65 76 81 hhcurveto
            38 31 -14 -47 16 hvcurveto
            12 -36 -5 -32 -10 -46 rrcurveto
            endchar
          </CharString>
          <CharString index="90">
            -20 -95 callgsubr
            hintmask 00011000
            11 callsubr
            return
          </CharString>
          <CharString index="91">
            -110 -23 75 -93 118 hhcurveto
            122 113 95 108 22 hvcurveto
            -20 319 rmoveto
            -62 -13 -54 -52 -83 hhcurveto
            return
          </CharString>
          <CharString index="92">
            531 -11 59 396 -20 return
          </CharString>
          <CharString index="93">
            21 -27 callgsubr
            return
          </CharString>
          <CharString index="94">
            -65 hlineto
            -112 return
          </CharString>
          <CharString index="95">
            rmoveto
            -32 -7 -32 -5 -20 hhcurveto
            -19 -31 6 31 7 hvcurveto
            32 7 32 5 20 hhcurveto
            19 return
          </CharString>
          <CharString index="96">
            449 -21 callsubr
            return
          </CharString>
          <CharString index="97">
            568 4 callsubr
            return
          </CharString>
          <CharString index="98">
            hstemhm
            -10 callgsubr
            return
          </CharString>
          <CharString index="99">
            rmoveto
            -32 -7 -32 -5 -20 hhcurveto
            -19 -31 6 31 7 10 callsubr
            -201 -122 rlineto
            89 hlineto
            endchar
          </CharString>
          <CharString index="100">
            580 -1 callgsubr
            return
          </CharString>
          <CharString index="101">
            -25 callgsubr
            hintmask 01000000
            -22 -5 -15 -76 callsubr
            -14 hvcurveto
            hintmask 00100000
            16 -22 -18 15 -27 hhcurveto
            hintmask 01000000
            -51 -59 -3 callsubr
            hintmask 00100000
            22 5 98 callgsubr
            18 -15 27 hhcurveto
            hintmask 00100000
            51 59 17 callsubr
          </CharString>
          <CharString index="102">
            245 18 callsubr
            return
          </CharString>
          <CharString index="103">
            198 930 rlineto
            14 3 4 21 -21 hhcurveto
            -22 -4 -19 -16 -3 hvcurveto
            -198 -930 29 callgsubr
            return
          </CharString>
          <CharString index="104">
            -46 -77 -18 hvcurveto
            65 hlineto
            return
          </CharString>
          <CharString index="105">
            vstem
            384 382 rmoveto
            13 62 rlineto
            -123 hlineto
            25 118 rlineto
            64 14 40 14 24 hhcurveto
            26 22 -10 -7 10 hvcurveto
            16 71 rlineto
            3 -8 -23 8 -29 hhcurveto
            -76 -77 -71 -101 -22 hvcurveto
            -19 -89 -43 callsubr
            return
          </CharString>
          <CharString index="106">
            343 191 62 hstemhm
            52 274 -261 274 hintmask 10100000
            326 49 callsubr
            hintmask 11000000
            -13 -62 rlineto
            endchar
          </CharString>
          <CharString index="107">
            -65 callsubr
            -355 hmoveto
            -65 callsubr
            return
          </CharString>
          <CharString index="108">
            -24 -9 -24 -6 -22 1 80 callsubr
            53 36 51 26 28 8 29 11 31 17 9 69 rcurveline
            -45 -73 -61 -8 -35 hhcurveto
            -83 -48 73 92 17 hvcurveto
            270 59 rmoveto
            -252 hlineto
            64 30 60 54 63 hhcurveto
            37 65 -17 -101 -3 hvcurveto
            return
          </CharString>
          <CharString index="109">
            hmoveto
            13 62 rlineto
            -128 hlineto
            89 420 rlineto
            -11 hlineto
            -20 -34 -21 -9 -27 hvcurveto
            hintmask 01000000
            -12 -46 -46 -2 -45 hhcurveto
            -13 -62 rlineto
            0 52 -1 35 5 vhcurveto
            hintmask 10101000
            19 3 31 7 0 vvcurveto
            128 callsubr
            -128 127 callgsubr
          </CharString>
          <CharString index="110">
            hstemhm
            103 84 -77 84 -20 84 190 87 -76 83 17 87 -69 87 return
          </CharString>
          <CharString index="111">
            rmoveto
            18 -61 callgsubr
            return
          </CharString>
          <CharString index="112">
            167 128 callgsubr
            -100 hlineto
            90 422 rlineto
            -97 hlineto
            -348 -422 -14 -65 rlineto
            271 hlineto
            -35 -167 rlineto
            84 hlineto
            35 167 rlineto
            -64 65 rmoveto
            -194 hlineto
            83 100 40 51 139 174 12 51 rlinecurve
            endchar
          </CharString>
          <CharString index="113">
            rrcurveto
            -55 callsubr
            -68 callsubr
            return
          </CharString>
          <CharString index="114">
            -10 callsubr
            hintmask 11001000
            -63 callgsubr
            hintmask 10010000
            82 callgsubr
          </CharString>
          <CharString index="115">
            rmoveto
            17 77 rlineto
            -77 hlineto
            -17 43 callgsubr
          </CharString>
          <CharString index="116">
            -16 -3 -4 -19 22 hhcurveto
            21 4 21 14 3 hvcurveto
            return
          </CharString>
          <CharString index="117">
            hvcurveto
            32 7 32 5 20 hhcurveto
            19 31 -5 -32 -7 -85 callsubr
            79 116 callsubr
            return
          </CharString>
          <CharString index="118">
            526 64 callsubr
            return
          </CharString>
          <CharString index="119">
            rmoveto
            -83 hlineto
            -99 -167 rlineto
            65 hlineto
            return
          </CharString>
          <CharString index="120">
            -13 -6 -9 -8 -7 hvcurveto
            -604 -747 -11 -13 -1 -2 -1 -5 rlinecurve
            -13 -3 8 -9 12 hhcurveto
            return
          </CharString>
          <CharString index="121">
            76 295 -84 callsubr
            return
          </CharString>
          <CharString index="122">
            hmoveto
            13 62 rlineto
            -128 hlineto
            131 614 rlineto
            -21 hlineto
            -65 -81 -96 0 -35 hhcurveto
            -13 -62 rlineto
            28 51 0 23 60 hvcurveto
            -109 -510 rlineto
            -128 127 callgsubr
          </CharString>
          <CharString index="123">
            59 53 29 46 16 79 rrcurveto
            -87 hmoveto
            -8 -39 -9 -41 -35 -43 rrcurveto
            return
          </CharString>
          <CharString index="124">
            46 77 18 hvcurveto
            endchar
          </CharString>
          <CharString index="125">
            21 79 callgsubr
            return
          </CharString>
          <CharString index="126">
            18 85 -1 1 rlineto
            -84 hlineto
            -1 -1 rlineto
            return
          </CharString>
          <CharString index="127">
            21 100 rlineto
            126 574 59 callgsubr
            377 119 rmoveto
            -140 hlineto
            56 60 29 31 95 104 8 31 rlinecurve
            endchar
          </CharString>
          <CharString index="128">
            -25 callgsubr
            -111 55 callsubr
          </CharString>
          <CharString index="129">
            -56 -28 -50 -48 -8 -51 return
          </CharString>
          <CharString index="130">
            hmoveto
            -41 219 134 219 rlineto
            -65 hlineto
            -153 -219 60 -219 rlineto
            return
          </CharString>
          <CharString index="131">
            531 69 callsubr
            return
          </CharString>
          <CharString index="132">
            rlineto
            1 hlineto
            1 return
          </CharString>
          <CharString index="133">
            343 191 62 hstemhm
            75 274 -261 274 hintmask 10100000
            349 49 callsubr
            hintmask 11000000
            -13 -62 rlineto
            endchar
          </CharString>
          <CharString index="134">
            694 -32 callgsubr
            return
          </CharString>
          <CharString index="135">
            -30 -25 -34 -27 -52 hhcurveto
            -107 16 143 33 4 hvcurveto
            return
          </CharString>
          <CharString index="136">
            70 callgsubr
            -18 -86 rlineto
            return
          </CharString>
          <CharString index="137">
            -27 callsubr
            -96 hlineto
            return
          </CharString>
          <CharString index="138">
            21 -15 14 rrcurveto
            15 return
          </CharString>
          <CharString index="139">
            rmoveto
            22 5 -22 0 -15 hhcurveto
            -610 hlineto
            -15 -22 0 -22 -5 hvcurveto
            -21 -4 20 0 13 hhcurveto
            618 hlineto
            14 19 0 21 4 hvcurveto
            return
          </CharString>
          <CharString index="140">
            12 7 9 8 7 hvcurveto
            606 749 rlineto
            9 11 2 7 0 vvcurveto
            return
          </CharString>
          <CharString index="141">
            727 21 -21 328 65 301 -20 return
          </CharString>
          <CharString index="142">
            694 0 40 614 40 hstem
            74 40 return
          </CharString>
          <CharString index="143">
            87 -68 87 82 87 -68 87 return
          </CharString>
          <CharString index="144">
            105 callsubr
            hintmask 0001001000100000
            -66 callgsubr
            hintmask 0001000001000000
            -19 -86 rlineto
            endchar
          </CharString>
          <CharString index="145">
            48 callgsubr
            hstemhm
            return
          </CharString>
          <CharString index="146">
            hlineto
            136 277 7 12 0 2 1 4 rlinecurve
            13 3 -7 9 -13 hhcurveto
            -15 -7 -12 -12 -6 hvcurveto
            -144 -293 rlineto
            return
          </CharString>
          <CharString index="147">
            rmoveto
            -65 callsubr
            return
          </CharString>
          <CharString index="148">
            rlineto
            273 hlineto
            174 173 152 189 40 hvcurveto
            -93 hmoveto
            -175 -37 -133 -107 -136 hhcurveto
            -155 hlineto
            return
          </CharString>
          <CharString index="149">
            -76 -16 -43 -61 -38 hhcurveto
            -13 -51 5 131 27 hvcurveto
            130 28 113 callsubr
          </CharString>
          <CharString index="150">
            -22 65 278 65 228 62 return
          </CharString>
          <CharString index="151">
            -30 callgsubr
            -38 -16 -27 return
          </CharString>
          <CharString index="152">
            98 82 301 82 131 82 return
          </CharString>
          <CharString index="153">
            -51 -59 -46 -77 return
          </CharString>
          <CharString index="154">
            rmoveto
            hintmask 10000100
            84 callgsubr
            hintmask 00010000
            return
          </CharString>
          <CharString index="155">
            -22 65 278 62 15 65 151 62 hstemhm
            return
          </CharString>
          <CharString index="156">
            191 24 callgsubr
            return
          </CharString>
          <CharString index="157">
            68 325 62 127 -20 return
          </CharString>
          <CharString index="158">
            hvcurveto
            -17 26 27 -17 40 hhcurveto
            hintmask 01000000
            25 28 8 10 24 hvcurveto
            hintmask 00100000
            22 10 22 11 20 14 rrcurveto
            endchar
          </CharString>
          <CharString index="159">
            649 148 rmoveto
            -84 hlineto
            -43 -9 -31 -43 -39 hhcurveto
            -30 -28 6 7 -27 hvcurveto
            -50 13 -51 14 -54 1 35 return
          </CharString>
          <CharString index="160">
            -20 hstem
            12 callgsubr
            return
          </CharString>
          <CharString index="161">
            -73 callgsubr
            hintmask 00001000
            -16 22 return
          </CharString>
          <CharString index="162">
            -168 rlineto
            74 hlineto
            endchar
          </CharString>
          <CharString index="163">
            192 116 -97 callsubr
            return
          </CharString>
          <CharString index="164">
            516 486 -97 callsubr
            return
          </CharString>
          <CharString index="165">
            53 -54 rcurveline
            48 46 97 -25 77 -20 rrcurveto
            -9 33 34 -7 37 hhcurveto
            85 77 80 90 19 hvcurveto
            endchar
          </CharString>
          <CharString index="166">
            65 92 68 158 65 160 68 hstem
            return
          </CharString>
          <CharString index="167">
            51 58 17 callsubr
          </CharString>
          <CharString index="168">
            494 -200 96 93 65 138 55 151 63 return
          </CharString>
          <CharString index="169">
            54 253 rlineto
            return
          </CharString>
          <CharString index="170">
            95 96 52 96 return
          </CharString>
          <CharString index="171">
            736 -97 callsubr
            return
          </CharString>
          <CharString index="172">
            rlineto
            83 hlineto
            10 47 rlineto
            -14 10 42 -44 74 hhcurveto
            104 107 101 133 28 hvcurveto
            -83 hmoveto
            return
          </CharString>
          <CharString index="173">
            576 rmoveto
            15 69 rlineto
            -199 hlineto
            -15 -69 rlineto
            124 -48 0 123 hhcurveto
            endchar
          </CharString>
          <CharString index="174" raw="1">
            1590a385 aa0a0b  
          </CharString>
          <CharString index="175">
            hlineto
            -12 -12 -1 -12 hhcurveto
            return
          </CharString>
          <CharString index="176">
            21 117 callgsubr
            return
          </CharString>
          <CharString index="177">
            7 32 rlineto
            -70 hlineto
            -12 -55 -8 -36 -25 -82 -93 -77 rlinecurve
            -26 -22 -37 -30 -14 -70 return
          </CharString>
          <CharString index="178">
            94 444 rlineto
            return
          </CharString>
          <CharString index="179">
            rmoveto
            14 69 rlineto
            -199 hlineto
            -14 -69 rlineto
            123 -48 0 124 hhcurveto
            endchar
          </CharString>
          <CharString index="180">
            531 -173 -21 183 65 333 68 return
          </CharString>
          <CharString index="181">
            799 -45 -21 44 65 608 65 44 -20 return
          </CharString>
          <CharString index="182">
            628 0 70 557 67 return
          </CharString>
          <CharString index="183">
            657 -11 68 580 68 return
          </CharString>
          <CharString index="184">
            546 -21 172 -20 hstem
            return
          </CharString>
          <CharString index="185">
            65 -7 65 hstemhm
            return
          </CharString>
          <CharString index="186">
            96 hintmask 11011000
            -75 callsubr
            return
          </CharString>
          <CharString index="187">
            -28 2 -22 6 5 30 8 44 return
          </CharString>
          <CharString index="188">
            -80 callsubr
            82 hlineto
            return
          </CharString>
          <CharString index="189">
            -238 -253 -9 -39 rlineto
            195 hlineto
            hintmask 00001000
            -21 -100 rlineto
            60 hlineto
            return
          </CharString>
          <CharString index="190">
            757 341 rmoveto
            196 42 -107 157 -174 hhcurveto
            -273 hlineto
            return
          </CharString>
          <CharString index="191">
            52 7 15 hhcurveto
            39 callgsubr
            return
          </CharString>
          <CharString index="192">
            342 -10 callsubr
            return
          </CharString>
          <CharString index="193">
            759 -200 96 82 70 600 68 return
          </CharString>
          <CharString index="194">
            -68 callsubr
            8 return
          </CharString>
          <CharString index="195">
            rlineto
            -286 hlineto
            -14 -21 0 -21 -4 hvcurveto
            -22 -5 19 0 16 hhcurveto
            return
          </CharString>
          <CharString index="196">
            67 48 -18 -36 46 hvcurveto
            35 87 rlineto
            25 -61 -56 10 -64 hhcurveto
            return
          </CharString>
          <CharString index="197">
            rlineto
            154 hlineto
            138 86 -113 -181 -39 hvcurveto
            endchar
          </CharString>
          <CharString index="198">
            -20 45 callgsubr
            return
          </CharString>
          <CharString index="199">
            -8 callgsubr
            hintmask 01000000
            51 return
          </CharString>
          <CharString index="200">
            65 148 65 358 62 return
          </CharString>
          <CharString index="201">
            87 87 callgsubr
            return
          </CharString>
          <CharString index="202">
            rmoveto
            18 85 rlineto
            -86 hlineto
            return
          </CharString>
          <CharString index="203">
            97 93 135 93 return
          </CharString>
          <CharString index="204">
            -167 rlineto
            endchar
          </CharString>
          <CharString index="205">
            -74 callsubr
            hintmask 1000010000000000
            -38 callsubr
          </CharString>
          <CharString index="206">
            -74 callsubr
            hintmask 1000001000000000
            -38 callsubr
          </CharString>
          <CharString index="207">
            1028 10 -21 239 44 -43 44 239 -20 hstemhm
            return
          </CharString>
          <CharString index="208">
            hlineto
            -19 -18 -11 -13 -2 hvcurveto
            -13 -3 12 -11 19 hhcurveto
            return
          </CharString>
          <CharString index="209">
            86 272 86 hstemhm
            99 86 -68 86 -28 86 -68 86 return
          </CharString>
          <CharString index="210">
            rmoveto
            20 5 -13 17 -21 hhcurveto
            -20 -20 -17 -20 -5 hvcurveto
            return
          </CharString>
          <CharString index="211">
            612 34 rmoveto
            10 74 rlineto
            -39 -68 -40 -23 -97 hhcurveto
            return
          </CharString>
          <CharString index="212">
            736 rmoveto
            19 -61 callgsubr
            return
          </CharString>
          <CharString index="213">
            -29 callsubr
            100 -21 return
          </CharString>
          <CharString index="214">
            687 22 callgsubr
            return
          </CharString>
          <CharString index="215">
            hlineto
            -14 -65 rlineto
            return
          </CharString>
          <CharString index="216">
            -13 -20 0 -21 -4 hvcurveto
            -22 -5 22 0 15 hhcurveto
            return
          </CharString>
          <CharString index="217">
            hstemhm
            97 93 52 96 -75 96 -34 93 211 87 return
          </CharString>
          <CharString index="218">
            14 rrcurveto
            15 -17 44 callsubr
            return
          </CharString>
          <CharString index="219">
            rmoveto
            9 39 rlineto
            -72 hlineto
            53 253 rlineto
            -70 hlineto
            return
          </CharString>
          <CharString index="220">
            84 callsubr
            endchar
          </CharString>
          <CharString index="221">
            rmoveto
            19 85 rlineto
            -86 hlineto
            return
          </CharString>
          <CharString index="222">
            -242 71 109 -20 return
          </CharString>
          <CharString index="223">
            242 rmoveto
            -111 hlineto
            return
          </CharString>
          <CharString index="224">
            86 -67 86 -19 86 28 86 -67 86 hintmask 01010000
            return
          </CharString>
          <CharString index="225">
            276 430 rmoveto
            61 286 rlineto
            -84 hlineto
            return
          </CharString>
          <CharString index="226">
            702 21 127 callsubr
            return
          </CharString>
          <CharString index="227">
            687 -14 callsubr
            return
          </CharString>
          <CharString index="228">
            486 -22 65 651 -20 return
          </CharString>
          <CharString index="229">
            123 callsubr
            hstemhm
            return
          </CharString>
          <CharString index="230">
            -21 122 -20 return
          </CharString>
          <CharString index="231">
            43 -25 43 -8 43 -25 43 hstemhm
            hintmask 10010000
            return
          </CharString>
          <CharString index="232">
            hstemhm
            63 callsubr
            196 96 52 96 return
          </CharString>
          <CharString index="233">
            0 62 314 62 -48 62 30 -20 hstemhm
            return
          </CharString>
          <CharString index="234">
            -21 618 70 return
          </CharString>
          <CharString index="235">
            -70 -328 rlineto
            return
          </CharString>
        <CharString name=".notdef">
          280 endchar
        </CharString>
        <CharString name="A">
          -48 callsubr
          hstem
          -103 callsubr
          endchar
        </CharString>
        <CharString name="AE">
          67 callgsubr
          hstem
          564 95 vstem
          -64 callgsubr
          endchar
        </CharString>
        <CharString name="AE.dup">
          67 callgsubr
          hstem
          564 95 vstem
          -64 callgsubr
          endchar
        </CharString>
        <CharString name="AEacute">
          67 callgsubr
          68 callgsubr
          564 95 hintmask 11110010
          -64 callgsubr
          hintmask 00001100
          254 242 -92 callsubr
        </CharString>
        <CharString name="Aacute">
          -48 callsubr
          93 122 callsubr
          hintmask 11100000
          -103 callsubr
          hintmask 00011000
          255 248 -92 callsubr
        </CharString>
        <CharString name="Abreve">
          -48 callsubr
          72 71 109 -20 hstemhm
          hintmask 11100000
          -103 callsubr
          hintmask 00011000
          -7 callgsubr
          endchar
        </CharString>
        <CharString name="Abreveacute">
          -48 callsubr
          72 71 266 -20 hstemhm
          hintmask 11100000
          -103 callsubr
          hintmask 00011000
          -7 callgsubr
          2 157 -92 callsubr
        </CharString>
        <CharString name="Abrevedotbelow">
          55 callgsubr
          72 71 109 -20 hstemhm
          253 96 -75 96 hintmask 01111100
          -103 callsubr
          -7 callgsubr
          hintmask 10000001
          -366 -1126 -74 callsubr
          hintmask 10000010
          -38 callsubr
        </CharString>
        <CharString name="Abrevegrave">
          -48 callsubr
          72 71 109 -20 hstemhm
          hintmask 11100000
          -103 callsubr
          hintmask 00011000
          -7 callgsubr
          -24 35 -9 callgsubr
        </CharString>
        <CharString name="Abrevehookabove">
          -48 callsubr
          72 71 338 -20 hstemhm
          hintmask 11100000
          -103 callsubr
          hintmask 00011000
          251 306 -51 callsubr
        </CharString>
        <CharString name="Abrevetilde">
          -48 callsubr
          72 71 164 78 callsubr
          hintmask 11100000
          -103 callsubr
          hintmask 00010100
          -7 callgsubr
          34 178 -53 callgsubr
        </CharString>
        <CharString name="Acaron">
          -48 callsubr
          83 -21 134 -20 hstemhm
          hintmask 11100000
          -103 callsubr
          hintmask 00011000
          221 250 -84 callgsubr
        </CharString>
        <CharString name="Acircumflex">
          -48 callsubr
          83 -21 134 -20 hstemhm
          hintmask 11100000
          -103 callsubr
          hintmask 00011000
          56 callsubr
          endchar
        </CharString>
        <CharString name="Acircumflexacute">
          -48 callsubr
          83 -21 291 -20 hstemhm
          hintmask 11100000
          -103 callsubr
          hintmask 00011000
          56 callsubr
          108 291 -92 callsubr
        </CharString>
        <CharString name="Acircumflexdotbelow">
          55 callgsubr
          83 -21 134 -20 hstemhm
          253 96 -75 96 hintmask 01111100
          -103 callsubr
          56 callsubr
          hintmask 10000001
          -248 -936 -74 callsubr
          hintmask 10000010
          -38 callsubr
        </CharString>
        <CharString name="Acircumflexgrave">
          -48 callsubr
          83 -21 134 -20 hstemhm
          hintmask 11100000
          -103 callsubr
          hintmask 00011000
          56 callsubr
          82 169 -9 callgsubr
        </CharString>
        <CharString name="Acircumflexhookabove">
          -48 callsubr
          83 -21 363 -20 hstemhm
          hintmask 11100000
          -103 callsubr
          hintmask 00011000
          192 116 -89 callsubr
        </CharString>
        <CharString name="Acircumflextilde">
          -48 callsubr
          83 -21 189 78 callsubr
          hintmask 11100000
          -103 callsubr
          hintmask 00010100
          56 callsubr
          141 312 -53 callgsubr
        </CharString>
        <CharString name="Adblgrave">
          -48 callsubr
          93 87 callgsubr
          hintmask 11100000
          -103 callsubr
          hintmask 00011000
          156 126 -87 callgsubr
        </CharString>
        <CharString name="Adieresis">
          -48 callsubr
          62 86 hstemhm
          363 36 callsubr
          hintmask 11100001
          -103 callsubr
          hintmask 00010100
          -14 116 rmoveto
          19 -61 callgsubr
          hintmask 00011001
          -66 callgsubr
          hintmask 00010010
          -19 -86 rlineto
          endchar
        </CharString>
        <CharString name="Adotbelow">
          55 callgsubr
          hstemhm
          253 96 -75 96 hintmask 01110000
          -103 callsubr
          hintmask 10000100
          -115 -820 -56 callsubr
        </CharString>
        <CharString name="Agrave">
          -48 callsubr
          93 122 callsubr
          hintmask 11100000
          -103 callsubr
          hintmask 00011000
          133 126 -68 callgsubr
        </CharString>
        <CharString name="Ahookabove">
          -48 callsubr
          83 -21 214 -20 hstemhm
          hintmask 11100000
          -103 callsubr
          hintmask 00011000
          165 251 -99 callsubr
        </CharString>
        <CharString name="Alpha">
          -48 callsubr
          hstem
          -103 callsubr
          endchar
        </CharString>
        <CharString name="Amacron">
          -48 callsubr
          82 69 hstemhm
          hintmask 11100000
          -103 callsubr
          hintmask 00010000
          226 136 -22 callsubr
        </CharString>
        <CharString name="Aogonek">
          687 -212 70 -45 59 149 -29 callgsubr
          -30 callsubr
          endchar
        </CharString>
        <CharString name="Aogonekacute">
          687 -212 70 -45 59 149 -29 callgsubr
          -20 93 -21 122 -30 callsubr
          hintmask 00000110
          255 248 -92 callsubr
        </CharString>
        <CharString name="Aring">
          -57 callsubr
          47 74 47 hstemhm
          hintmask 11100000
          -103 callsubr
          hintmask 00110000
          95 158 rmoveto
          -32 -7 -32 -5 -20 hhcurveto
          -19 -30 6 31 6 hvcurveto
          32 7 32 5 20 hhcurveto
          19 31 -5 -32 -7 -41 callsubr
        </CharString>
        <CharString name="Aringacute">
          -57 callsubr
          47 74 47 157 -20 hstemhm
          hintmask 11100000
          -103 callsubr
          hintmask 00111000
          95 158 rmoveto
          -32 -7 -32 -5 -20 hhcurveto
          -19 -30 6 31 6 10 callsubr
          -200 -122 rlineto
          89 hlineto
          endchar
        </CharString>
        <CharString name="Atilde">
          -48 callsubr
          62 78 callsubr
          hintmask 11100000
          -103 callsubr
          hintmask 00001000
          232 239 -72 callsubr
        </CharString>
        <CharString name="B">
          -46 callgsubr
        </CharString>
        <CharString name="Beta">
          -46 callgsubr
        </CharString>
        <CharString name="C">
          76 callsubr
          hstem
          -94 callsubr
          endchar
        </CharString>
        <CharString name="Cacute">
          76 callsubr
          62 122 callsubr
          hintmask 11000000
          -94 callsubr
          hintmask 00110000
          123 823 -92 callsubr
        </CharString>
        <CharString name="Ccaron">
          76 callsubr
          52 -21 134 -20 hstemhm
          hintmask 11000000
          -94 callsubr
          hintmask 00110000
          89 825 -84 callgsubr
        </CharString>
        <CharString name="Ccedilla">
          657 -22 68 602 68 hstem
          140 96 vstem
          104 callsubr
          -153 -61 149 152 33 hvcurveto
          160 34 129 141 143 hhcurveto
          89 callsubr
          -200 -176 -174 -195 -41 hvcurveto
          -193 -41 99 -176 203 hhcurveto
          90 43 15 41 78 hvcurveto
          -212 -80 21 callsubr
        </CharString>
        <CharString name="Ccircumflex">
          76 callsubr
          52 -21 134 -20 hstemhm
          hintmask 11000000
          -94 callsubr
          hintmask 00110000
          60 691 -78 callsubr
        </CharString>
        <CharString name="Cdotaccent">
          76 callsubr
          31 96 hstemhm
          469 96 -75 96 hintmask 11000000
          -94 callsubr
          hintmask 00101000
          -48 691 -74 callsubr
          hintmask 00110000
          -38 callsubr
        </CharString>
        <CharString name="Chi">
          3 callgsubr
        </CharString>
        <CharString name="D">
          743 0 59 576 59 hstem
          664 93 vstem
          -71 callgsubr
          endchar
        </CharString>
        <CharString name="Dcaron">
          743 0 59 576 59 115 callgsubr
          664 93 hintmask 11001000
          -71 callgsubr
          hintmask 00110000
          -56 529 -84 callgsubr
        </CharString>
        <CharString name="Dcroat">
          -44 callsubr
        </CharString>
        <CharString name="Ddotbelow">
          743 -200 96 104 59 576 59 hstemhm
          176 96 -75 96 371 93 hintmask 01100100
          -71 callgsubr
          hintmask 10001000
          -392 -541 -35 callsubr
        </CharString>
        <CharString name="Delta">
          856 0 90 604 -20 hstem
          812 hmoveto
          -189 694 rlineto
          -95 hlineto
          -485 -37 callgsubr
          638 90 rmoveto
          -493 hlineto
          204 295 65 95 68 98 22 42 rlinecurve
          4 -43 29 -111 25 -91 rrcurveto
          endchar
        </CharString>
        <CharString name="Dlinebelow">
          743 -186 69 117 59 576 59 hstemhm
          664 93 hintmask 01110000
          -71 callgsubr
          hintmask 10000000
          -252 -527 -60 callgsubr
        </CharString>
        <CharString name="E">
          -58 callgsubr
          hstem
          573 hmoveto
          -102 callsubr
          endchar
        </CharString>
        <CharString name="Eacute">
          -58 callgsubr
          76 -21 122 -20 -95 callgsubr
          hintmask 00011000
          589 868 -92 callsubr
        </CharString>
        <CharString name="Ebreve">
          -58 callgsubr
          55 71 109 -20 -95 callgsubr
          hintmask 00011000
          585 926 -98 callgsubr
          71 -68 86 hhcurveto
          90 99 71 109 25 hvcurveto
          endchar
        </CharString>
        <CharString name="Ecaron">
          -58 callgsubr
          66 -21 134 -20 -95 callgsubr
          hintmask 00011000
          555 870 -84 callgsubr
        </CharString>
        <CharString name="Ecircumflex">
          -58 callgsubr
          66 -21 134 -17 callsubr
          endchar
        </CharString>
        <CharString name="Ecircumflexacute">
          -58 callgsubr
          66 -21 291 -17 callsubr
          108 291 -92 callsubr
        </CharString>
        <CharString name="Ecircumflexdotbelow">
          617 -200 96 104 76 251 65 229 70 66 -21 134 -20 hstemhm
          218 96 -75 96 hintmask 01111100
          573 hmoveto
          -102 callsubr
          11 callsubr
          hintmask 10000001
          -248 -936 -74 callsubr
          hintmask 10000010
          -38 callsubr
        </CharString>
        <CharString name="Ecircumflexgrave">
          -58 callgsubr
          66 -21 134 -17 callsubr
          82 169 -9 callgsubr
        </CharString>
        <CharString name="Ecircumflexhookabove">
          -58 callgsubr
          66 -21 363 -20 hstemhm
          hintmask 11100000
          573 hmoveto
          16 76 rlineto
          -100 hlineto
          -282 -2 54 253 rlineto
          339 hlineto
          13 65 rlineto
          -339 hlineto
          49 231 rlineto
          38 hlineto
          244 -2 rlineto
          86 hlineto
          15 70 rlineto
          -464 hlineto
          -147 -691 rlineto
          hintmask 00011000
          526 736 -89 callsubr
        </CharString>
        <CharString name="Ecircumflextilde">
          -58 callgsubr
          66 -21 189 65 -7 65 -95 callgsubr
          hintmask 00010100
          11 callsubr
          141 312 -53 callgsubr
        </CharString>
        <CharString name="Edblgrave">
          -58 callgsubr
          76 -21 167 -20 -95 callgsubr
          hintmask 00011000
          519 746 -87 callgsubr
        </CharString>
        <CharString name="Edieresis">
          -58 callgsubr
          45 86 hstemhm
          328 36 callsubr
          hintmask 11100000
          573 hmoveto
          -102 callsubr
          hintmask 00010100
          320 105 callsubr
          hintmask 00011001
          -66 callgsubr
          hintmask 00010010
          -19 -86 rlineto
          endchar
        </CharString>
        <CharString name="Edotaccent">
          -58 callgsubr
          45 96 hstemhm
          417 96 -75 96 hintmask 11100000
          573 hmoveto
          -102 callsubr
          hintmask 00010100
          418 736 -74 callsubr
          hintmask 00011000
          -38 callsubr
        </CharString>
        <CharString name="Edotbelow">
          617 -200 96 104 76 251 65 229 70 hstemhm
          218 96 -75 96 hintmask 01110000
          573 hmoveto
          -102 callsubr
          hintmask 10000100
          219 -200 -56 callsubr
        </CharString>
        <CharString name="Egrave">
          -58 callgsubr
          76 -21 122 -20 -95 callgsubr
          hintmask 00011000
          467 746 -68 callgsubr
        </CharString>
        <CharString name="Ehookabove">
          -58 callgsubr
          66 -21 214 -20 -95 callgsubr
          hintmask 00011000
          499 871 -99 callsubr
        </CharString>
        <CharString name="Emacron">
          -58 callgsubr
          65 69 -95 callgsubr
          hintmask 00010000
          560 756 -22 callsubr
        </CharString>
        <CharString name="Eng">
          727 -22 84 570 84 hstem
          63 callsubr
          270 96 vstem
          705 347 rmoveto
          183 39 -32 186 -160 hhcurveto
          -82 -80 -32 -53 -65 hvcurveto
          14 63 -60 callsubr
          96 hlineto
          99 468 rlineto
          94 43 99 70 102 hhcurveto
          116 -12 -149 -136 -29 hvcurveto
          -135 -29 -51 -150 -116 hhcurveto
          -18 -84 rlineto
          160 111 186 183 39 hvcurveto
          endchar
        </CharString>
        <CharString name="Eogonek">
          99 callgsubr
          hstemhm
          443 96 -63 63 hintmask 11110100
          546 -187 rmoveto
          87 callsubr
          44 49 34 52 26 rrcurveto
          34 hlineto
          -102 callsubr
          381 hlineto
          22 callsubr
          rrcurveto
          hintmask 10001000
          -55 callsubr
          endchar
        </CharString>
        <CharString name="Eogonekacute">
          99 callgsubr
          76 122 callsubr
          443 96 -63 63 hintmask 11110001
          546 -187 rmoveto
          87 callsubr
          44 49 34 52 26 rrcurveto
          34 hlineto
          -102 callsubr
          381 hlineto
          22 callsubr
          rrcurveto
          hintmask 10000010
          -55 callsubr
          hintmask 00001100
          138 1055 -92 callsubr
        </CharString>
        <CharString name="Epsilon">
          -58 callgsubr
          hstem
          573 hmoveto
          -102 callsubr
          endchar
        </CharString>
        <CharString name="Ereversed">
          -58 callgsubr
          hstem
          573 hmoveto
          147 691 rlineto
          -464 hlineto
          -15 -70 rlineto
          86 hlineto
          244 2 rlineto
          38 hlineto
          -49 -231 rlineto
          -339 hlineto
          -13 -65 rlineto
          339 hlineto
          -54 -253 -282 2 rlineto
          -100 hlineto
          -16 -76 rlineto
          endchar
        </CharString>
        <CharString name="Eta">
          34 callsubr
          hstem
          63 callsubr
          196 96 52 96 vstem
          -79 callsubr
          endchar
        </CharString>
        <CharString name="Eth">
          -44 callsubr
        </CharString>
        <CharString name="Etilde">
          -58 callgsubr
          45 65 -7 65 -95 callgsubr
          hintmask 00001000
          566 859 -72 callsubr
        </CharString>
        <CharString name="Euro">
          615 -22 68 210 58 66 58 210 68 hstem
          197 96 vstem
          571 34 rmoveto
          9 74 rlineto
          -50 -60 -33 -12 -70 hhcurveto
          -56 -38 40 48 -20 hvcurveto
          -16 38 -6 41 1 43 rrcurveto
          249 hlineto
          23 58 rlineto
          -267 hlineto
          1 11 2 11 3 11 2 11 3 11 3 11 rrcurveto
          279 hlineto
          22 58 rlineto
          -281 hlineto
          17 43 24 42 31 37 rrcurveto
          49 41 55 39 56 hhcurveto
          54 34 -15 -38 30 hvcurveto
          34 87 rlineto
          25 -44 -37 9 -56 hhcurveto
          -80 -82 -44 -64 -62 hvcurveto
          -50 -50 -36 -58 -25 -62 rrcurveto
          -70 hlineto
          -22 -58 rlineto
          72 hlineto
          -3 -11 -3 -11 -2 -11 -3 -11 -2 -11 -1 -11 rrcurveto
          -62 hlineto
          -23 -58 rlineto
          80 hlineto
          -1 -61 12 -59 28 -50 rrcurveto
          -64 35 63 -44 80 hhcurveto
          71 32 11 45 65 hvcurveto
          endchar
        </CharString>
        <CharString name="F">
          589 21 -21 313 65 243 70 hstem
          95 96 vstem
          677 621 rmoveto
          15 70 rlineto
          -450 -26 callgsubr
          96 hlineto
          67 313 rlineto
          311 hlineto
          13 65 rlineto
          -311 hlineto
          52 245 rlineto
          34 hlineto
          237 -2 rlineto
          endchar
        </CharString>
        <CharString name="G">
          35 callgsubr
          hstem
          -100 callsubr
          endchar
        </CharString>
        <CharString name="Gacute">
          35 callgsubr
          62 122 callsubr
          hintmask 11100000
          -100 callsubr
          hintmask 00011000
          95 830 -92 callsubr
        </CharString>
        <CharString name="Gamma">
          560 21 -21 621 70 hstem
          95 96 vstem
          648 621 rmoveto
          15 70 rlineto
          -421 -26 callgsubr
          96 hlineto
          132 623 rlineto
          27 hlineto
          223 -2 rlineto
          endchar
        </CharString>
        <CharString name="Gbreve">
          35 callgsubr
          41 71 109 -20 hstemhm
          hintmask 11100000
          -100 callsubr
          hintmask 00011000
          91 888 -98 callgsubr
          71 -68 86 hhcurveto
          90 99 71 109 25 hvcurveto
          endchar
        </CharString>
        <CharString name="Gcaron">
          35 callgsubr
          52 -21 134 -20 hstemhm
          hintmask 11100000
          -100 callsubr
          hintmask 00011000
          61 832 -84 callgsubr
        </CharString>
        <CharString name="Gcedilla">
          685 -29 callsubr
          68 37 callgsubr
          hstem
          -100 callsubr
          -274 -194 -91 callsubr
        </CharString>
        <CharString name="Gcircumflex">
          35 callgsubr
          52 -21 134 -20 hstemhm
          hintmask 11100000
          -100 callsubr
          hintmask 00011000
          32 698 -78 callsubr
        </CharString>
        <CharString name="Gcommaaccent">
          685 -29 callsubr
          68 37 callgsubr
          hstemhm
          hintmask 00111000
          -100 callsubr
          hintmask 11000000
          -274 -194 -91 callsubr
        </CharString>
        <CharString name="Gdotaccent">
          35 callgsubr
          31 96 hstemhm
          451 96 -75 96 hintmask 11101000
          -100 callsubr
          hintmask 00010100
          -76 698 -74 callsubr
          hintmask 00011000
          -38 callsubr
        </CharString>
        <CharString name="H">
          34 callsubr
          hstem
          63 callsubr
          196 96 52 96 vstem
          -79 callsubr
          endchar
        </CharString>
        <CharString name="H_uni0303">
          34 callsubr
          62 65 -7 65 125 callsubr
          hintmask 1110011110000000
          -79 callsubr
          hintmask 0000100000000000
          181 859 -25 callgsubr
          hintmask 0001000000000000
          -63 callsubr
          hintmask 0000100000000000
          16 -22 -19 15 -27 hhcurveto
          hintmask 0001000000000000
          -51 -58 -3 callsubr
          hintmask 0000100000000000
          -15 callgsubr
          19 -15 -12 15 hvcurveto
          hintmask 0001000000000000
          -16 21 -8 callgsubr
          hintmask 0000100000000000
          -25 callsubr
        </CharString>
        <CharString name="Hbar">
          727 21 -21 328 65 94 68 139 -20 hstemhm
          95 96 8 96 -82 96 -66 96 196 96 8 96 -82 96 -66 96 hintmask 0010000000100000
          791 487 rmoveto
          14 68 rlineto
          -56 hlineto
          hintmask 0001000000010000
          30 139 -18 callgsubr
          hintmask 0010001000100000
          -30 -139 rlineto
          -344 hlineto
          hintmask 0001000100000000
          30 139 -18 callgsubr
          hintmask 0010001000000000
          -30 -139 rlineto
          -56 123 callgsubr
          hintmask 1110110011000000
          56 hlineto
          -104 -487 rlineto
          96 hlineto
          70 328 rlineto
          344 hlineto
          128 callsubr
          96 hlineto
          104 487 rlineto
          -116 -94 rmoveto
          -344 hlineto
          20 94 rlineto
          344 hlineto
          endchar
        </CharString>
        <CharString name="Hbrevebelow">
          727 115 callsubr
          103 113 callgsubr
          196 96 52 96 hintmask 0011111110000000
          -79 callsubr
          hintmask 1100000000000000
          -11 -62 -98 callgsubr
          72 -68 86 hhcurveto
          90 98 71 109 25 hvcurveto
          endchar
        </CharString>
        <CharString name="Hcircumflex">
          34 callsubr
          83 -21 134 -20 125 callsubr
          hintmask 1110011110000000
          -79 callsubr
          hintmask 0001100000000000
          141 -3 callgsubr
        </CharString>
        <CharString name="Hdieresis">
          34 callsubr
          62 86 hstemhm
          63 callsubr
          44 87 -68 87 46 96 -60 87 -68 87 6 96 hintmask 1110110010010000
          -79 callsubr
          hintmask 0001000100000000
          -65 37 callsubr
        </CharString>
        <CharString name="Hdotbelow">
          727 -200 96 125 113 callgsubr
          -66 96 -75 96 145 96 52 96 hintmask 0111110011000000
          -79 callsubr
          hintmask 1000000100000000
          -166 -200 99 callsubr
        </CharString>
        <CharString name="I">
          36 callgsubr
          hstem
          63 callsubr
          vstem
          -75 callsubr
          endchar
        </CharString>
        <CharString name="I_J">
          744 -22 65 -43 20 674 -20 hstemhm
          95 96 52 93 -93 96 257 93 23 93 hintmask 01110111
          -75 callsubr
          594 149 rmoveto
          116 545 rlineto
          -93 hlineto
          -116 -542 rlineto
          hintmask 10001000
          -17 -3 -20 -92 -119 hhcurveto
          -53 -42 26 31 -23 hvcurveto
          hintmask 01000000
          -31 -80 rlineto
          hintmask 10000010
          -36 65 63 -6 39 hhcurveto
          103 89 55 116 25 hvcurveto
          endchar
        </CharString>
        <CharString name="Iacute">
          36 callgsubr
          93 122 callsubr
          63 callsubr
          hintmask 11001100
          -75 callsubr
          hintmask 00110000
          470 868 -92 callsubr
        </CharString>
        <CharString name="Ibreve">
          36 callgsubr
          72 71 109 -20 hstemhm
          63 callsubr
          hintmask 11001100
          -75 callsubr
          hintmask 00110000
          420 926 -98 callgsubr
          71 -68 86 hhcurveto
          90 99 71 109 25 hvcurveto
          endchar
        </CharString>
        <CharString name="Icaron">
          36 callgsubr
          83 -21 134 -20 hstemhm
          63 callsubr
          hintmask 11001100
          -75 callsubr
          hintmask 00110000
          390 870 -84 callgsubr
        </CharString>
        <CharString name="Icircumflex">
          36 callgsubr
          83 -21 134 -20 hstemhm
          63 callsubr
          hintmask 11001100
          -75 callsubr
          hintmask 00110000
          361 -3 callgsubr
        </CharString>
        <CharString name="Idblgrave">
          36 callgsubr
          93 87 callgsubr
          63 callsubr
          hintmask 11001100
          -75 callsubr
          hintmask 00110100
          354 746 -87 callgsubr
        </CharString>
        <CharString name="Idieresis">
          36 callgsubr
          62 86 hstemhm
          95 96 -28 87 -68 87 -26 96 12 87 -68 87 hintmask 1101001000000000
          -75 callsubr
          hintmask 0010010000000000
          155 105 callsubr
          hintmask 0010100010000000
          -66 callgsubr
          hintmask 0010000100000000
          -19 -86 rlineto
          endchar
        </CharString>
        <CharString name="Idieresisacute">
          36 callgsubr
          62 86 68 callgsubr
          95 96 -28 87 -68 87 -26 96 12 87 -68 87 hintmask 1100010010000000
          -75 callsubr
          hintmask 0010000100000000
          155 105 callsubr
          hintmask 0010001000100000
          -66 callgsubr
          hintmask 0011100001000000
          -19 -86 rlineto
          195 260 -92 callsubr
        </CharString>
        <CharString name="Idotaccent">
          36 callgsubr
          62 96 hstemhm
          63 callsubr
          -87 96 -75 79 callsubr
          hintmask 00100010
          253 736 -74 callsubr
          hintmask 00100100
          -38 callsubr
        </CharString>
        <CharString name="Idotbelow">
          287 22 callgsubr
          694 -20 hstemhm
          53 96 -75 96 -75 96 52 96 hintmask 01100110
          -75 callsubr
          hintmask 10001000
          54 -200 -35 callsubr
        </CharString>
        <CharString name="Igrave">
          36 callgsubr
          93 122 callsubr
          63 callsubr
          hintmask 11001100
          -75 callsubr
          hintmask 00110000
          254 746 -68 callgsubr
        </CharString>
        <CharString name="Ihookabove">
          36 callgsubr
          83 -21 214 -20 hstemhm
          63 callsubr
          hintmask 11001100
          -75 callsubr
          hintmask 00110100
          334 871 -99 callsubr
        </CharString>
        <CharString name="Imacron">
          26 callgsubr
          395 756 -22 callsubr
        </CharString>
        <CharString name="Imacron.alt">
          26 callgsubr
          309 756 72 callsubr
        </CharString>
        <CharString name="Iogonek">
          287 -212 70 163 -27 callgsubr
          hstem
          63 callsubr
          vstem
          196 -187 rmoveto
          87 callsubr
          44 51 34 52 26 -38 callgsubr
          rcurveline
          -54 callgsubr
          31 hlineto
          22 callsubr
          rrcurveto
          -55 callsubr
          endchar
        </CharString>
        <CharString name="Iogonekacute">
          287 -212 70 163 -27 callgsubr
          93 122 callsubr
          63 callsubr
          hintmask 11100110
          196 -187 rmoveto
          87 callsubr
          44 51 34 52 26 -38 callgsubr
          rcurveline
          -54 callgsubr
          31 hlineto
          22 callsubr
          rrcurveto
          -55 callsubr
          hintmask 00011000
          369 1055 -92 callsubr
        </CharString>
        <CharString name="Iota">
          36 callgsubr
          hstem
          63 callsubr
          vstem
          -75 callsubr
          endchar
        </CharString>
        <CharString name="Itilde">
          36 callgsubr
          62 78 callsubr
          63 callsubr
          hintmask 11001100
          -75 callsubr
          hintmask 00010000
          401 859 -25 callgsubr
          hintmask 00100000
          -93 callgsubr
        </CharString>
        <CharString name="J">
          121 callsubr
          hstem
          338 93 23 93 vstem
          -56 callgsubr
          endchar
        </CharString>
        <CharString name="J_uni030C.cap">
          486.10715 -22 65 480 -21 114 78 hstem
          338 93 23 93 vstem
          -56 callgsubr
          215 468 8 callsubr
        </CharString>
        <CharString name="Jacute">
          121 callsubr
          93 122 callsubr
          338 93 23 93 hintmask 11001100
          -56 callgsubr
          hintmask 00110000
          345 719 -92 callsubr
        </CharString>
        <CharString name="Jcircumflex">
          121 callsubr
          83 -21 134 -20 hstemhm
          338 93 23 93 hintmask 11001100
          -56 callgsubr
          hintmask 00110000
          233 587 -78 callsubr
        </CharString>
        <CharString name="K">
          715 51 callgsubr
          98 91 57 91 vstem
          -50 callgsubr
          endchar
        </CharString>
        <CharString name="Kappa">
          715 51 callgsubr
          98 91 57 91 vstem
          -50 callgsubr
          endchar
        </CharString>
        <CharString name="Kcedilla">
          715 48 callgsubr
          hstem
          98 91 57 91 vstem
          -50 callgsubr
          -208 -156 -91 callsubr
        </CharString>
        <CharString name="Kcommaaccent">
          715 38 callsubr
          98 91 57 91 hintmask 00111100
          -50 callgsubr
          hintmask 11000000
          -208 -156 -91 callsubr
        </CharString>
        <CharString name="L">
          560 0 70 624 -20 hstem
          243 96 vstem
          -71 callsubr
          endchar
        </CharString>
        <CharString name="L_uni0303">
          560 0 70 624 -20 62 78 callsubr
          243 96 hintmask 11001000
          -71 callsubr
          hintmask 00010000
          400 859 -25 callgsubr
          hintmask 00100000
          -93 callgsubr
        </CharString>
        <CharString name="Lacute">
          560 0 70 624 -20 93 122 callsubr
          243 96 hintmask 11001000
          -71 callsubr
          hintmask 00110000
          470 868 -92 callsubr
        </CharString>
        <CharString name="Lambda">
          630 51 callgsubr
          600 hmoveto
          -92 694 rlineto
          -91 hlineto
          -388 -37 callgsubr
          78 hlineto
          172 311 85 158 57 112 7 19 5 17 rlinecurve
          1 hlineto
          0 -4 -36 11 -118 vhcurveto
          19 -169 39 -294 rlineto
          endchar
        </CharString>
        <CharString name="Lcaron">
          560 0 70 453 -21 114 78 hstem
          243 96 vstem
          -71 callsubr
          362 617 8 callsubr
        </CharString>
        <CharString name="Lcedilla">
          560 -29 callsubr
          79 70 624 -20 hstem
          243 96 vstem
          -71 callsubr
          191 -156 -91 callsubr
        </CharString>
        <CharString name="Lcommaaccent">
          560 -29 callsubr
          79 70 624 -20 hstemhm
          243 96 hintmask 00111000
          -71 callsubr
          hintmask 11000000
          191 -156 -91 callsubr
        </CharString>
        <CharString name="Ldot">
          560 0 70 251 96 277 -20 hstem
          243 96 125 96 vstem
          -71 callsubr
          444 321 -74 callsubr
          -38 callsubr
        </CharString>
        <CharString name="Ldotbelow">
          560 -200 96 104 70 624 -20 hstemhm
          189 96 -75 96 -63 96 hintmask 01100100
          -71 callsubr
          hintmask 10001000
          190 -200 -35 callsubr
        </CharString>
        <CharString name="Ldotbelowmacron">
          560 -200 96 104 70 624 -20 82 69 hstemhm
          189 96 -75 96 -63 96 hintmask 01100010
          -71 callsubr
          190 -200 47 callsubr
          300 956 -22 callsubr
        </CharString>
        <CharString name="Lslash">
          646 0 68 626 -20 hstem
          319 96 vstem
          592 hmoveto
          15 70 rlineto
          -44 hlineto
          -244 -2 rlineto
          -38 hlineto
          64 298 194 137 -29 45 -149 -107 62 callsubr
          -96 hlineto
          -71 -334 -115 -82 28 -43 71 51 -61 -286 rlineto
          endchar
        </CharString>
        <CharString name="M">
          898 51 callgsubr
          102 82 529 82 vstem
          -70 callsubr
          endchar
        </CharString>
        <CharString name="Mdotbelow">
          898 22 callgsubr
          694 -20 hstemhm
          102 82 174 96 -75 96 238 82 hintmask 01110010
          -70 callsubr
          hintmask 10000100
          -259 -200 -56 callsubr
        </CharString>
        <CharString name="Mu">
          898 51 callgsubr
          102 82 529 82 vstem
          -70 callsubr
          endchar
        </CharString>
        <CharString name="N">
          727 51 callgsubr
          45 callsubr
          vstem
          -95 callsubr
          endchar
        </CharString>
        <CharString name="Nacute">
          727 -14 callsubr
          93 -21 122 -20 92 callgsubr
          hintmask 11001110
          -95 callsubr
          hintmask 00110000
          243 868 -92 callsubr
        </CharString>
        <CharString name="Ncaron">
          727 -14 callsubr
          83 -21 134 -20 92 callgsubr
          hintmask 11001110
          -95 callsubr
          hintmask 00110000
          209 870 -84 callgsubr
        </CharString>
        <CharString name="Ncedilla">
          727 48 callgsubr
          hstem
          45 callsubr
          vstem
          -95 callsubr
          -127 -156 -91 callsubr
        </CharString>
        <CharString name="Ncommaaccent">
          727 38 callsubr
          98 82 301 82 131 82 hintmask 00111110
          -95 callsubr
          hintmask 11000000
          -127 -156 -91 callsubr
        </CharString>
        <CharString name="Ndotaccent">
          727 -14 callsubr
          62 96 hstemhm
          98 82 292 96 -87 82 -70 96 105 82 hintmask 11010101
          -95 callsubr
          hintmask 00100010
          72 736 -74 callsubr
          hintmask 00101000
          -38 callsubr
        </CharString>
        <CharString name="Ndotbelow">
          727 22 callgsubr
          694 -20 hstemhm
          98 82 93 96 -75 96 91 82 131 82 hintmask 01110011
          -95 callsubr
          hintmask 10000100
          -127 -200 -56 callsubr
        </CharString>
        <CharString name="Ntilde">
          727 -14 callsubr
          62 65 -7 65 92 callgsubr
          hintmask 11001110
          -95 callsubr
          hintmask 00010000
          220 859 -25 callgsubr
          hintmask 00100000
          -93 callgsubr
        </CharString>
        <CharString name="Nu">
          727 51 callgsubr
          45 callsubr
          vstem
          -95 callsubr
          endchar
        </CharString>
        <CharString name="O">
          -44 callgsubr
          hstem
          -107 callsubr
          endchar
        </CharString>
        <CharString name="OE">
          -67 callsubr
        </CharString>
        <CharString name="OE.dup">
          -67 callsubr
        </CharString>
        <CharString name="Oacute">
          -44 callgsubr
          51 -21 122 -20 -105 callgsubr
          hintmask 00110000
          74 509 -92 callsubr
        </CharString>
        <CharString name="Obreve">
          -44 callgsubr
          30 71 109 -20 -105 callgsubr
          hintmask 00110000
          70 567 -98 callgsubr
          71 -68 86 hhcurveto
          90 99 71 109 25 hvcurveto
          endchar
        </CharString>
        <CharString name="Ocaron">
          -44 callgsubr
          41 -21 134 -20 -105 callgsubr
          hintmask 00110000
          40 511 -84 callgsubr
        </CharString>
        <CharString name="Ocircumflex">
          -44 callgsubr
          41 -21 134 -20 -105 callgsubr
          hintmask 00110000
          14 callgsubr
          endchar
        </CharString>
        <CharString name="Ocircumflexacute">
          -44 callgsubr
          41 -21 291 -20 -105 callgsubr
          hintmask 00110000
          14 callgsubr
          108 291 -92 callsubr
        </CharString>
        <CharString name="Ocircumflexdotbelow">
          86 callsubr
          41 -21 134 -20 hstemhm
          289 96 -75 96 hintmask 01111000
          -107 callsubr
          14 callgsubr
          hintmask 10000010
          -248 -936 -74 callsubr
          hintmask 10000100
          -38 callsubr
        </CharString>
        <CharString name="Ocircumflexgrave">
          -44 callgsubr
          41 -21 134 -20 -105 callgsubr
          hintmask 00110000
          14 callgsubr
          82 169 -9 callgsubr
        </CharString>
        <CharString name="Ocircumflexhookabove">
          -44 callgsubr
          41 -21 363 -20 -105 callgsubr
          hintmask 00110000
          11 377 -89 callsubr
        </CharString>
        <CharString name="Ocircumflextilde">
          -44 callgsubr
          41 -21 189 65 -7 65 -105 callgsubr
          hintmask 00101000
          14 callgsubr
          141 312 -25 callgsubr
          hintmask 00010000
          -22 -5 -15 -76 callsubr
          -14 hvcurveto
          hintmask 00001000
          16 -22 -18 15 -27 hhcurveto
          hintmask 00010000
          -51 -59 -3 callsubr
          hintmask 00001000
          22 5 -73 callgsubr
          hintmask 00010000
          -16 22 18 -15 27 hhcurveto
          hintmask 00001000
          51 59 17 callsubr
        </CharString>
        <CharString name="Odblgrave">
          -44 callgsubr
          51 -21 167 -20 -105 callgsubr
          hintmask 00110000
          4 387 -87 callgsubr
        </CharString>
        <CharString name="Odieresis">
          -44 callgsubr
          20 86 hstemhm
          399 36 callsubr
          -105 callsubr
          hintmask 00101000
          -195 377 rmoveto
          19 -61 callgsubr
          hintmask 00110010
          -66 callgsubr
          hintmask 00100100
          -19 -86 rlineto
          endchar
        </CharString>
        <CharString name="Odotbelow">
          86 callsubr
          hstemhm
          289 96 -75 96 hintmask 01100000
          -107 callsubr
          hintmask 10001000
          -296 -559 -35 callsubr
        </CharString>
        <CharString name="Ograve">
          -44 callgsubr
          51 -21 122 -20 -105 callgsubr
          hintmask 00110000
          -48 387 -68 callgsubr
        </CharString>
        <CharString name="Ohookabove">
          -44 callgsubr
          41 -21 214 -20 -105 callgsubr
          hintmask 00110000
          -16 512 -99 callsubr
        </CharString>
        <CharString name="Ohorn">
          -44 callgsubr
          65 -20 hstemhm
          694 86 -68 86 hintmask 00010000
          -28 callsubr
          hintmask 00101000
          19 callsubr
          hintmask 11010000
          -96 callsubr
          endchar
        </CharString>
        <CharString name="Ohornacute">
          -44 callgsubr
          51 -21 35 -20 107 -20 hstemhm
          694 86 -68 86 hintmask 00000100
          -28 callsubr
          hintmask 00010010
          19 callsubr
          hintmask 11000100
          -96 callsubr
          hintmask 00101000
          45 507 -92 callsubr
        </CharString>
        <CharString name="Ohorndotbelow">
          86 callsubr
          65 -20 hstemhm
          289 96 -75 96 288 86 -68 86 hintmask 00000010
          -28 callsubr
          hintmask 00010001
          19 callsubr
          hintmask 01100010
          -96 callsubr
          hintmask 10000100
          -296 -561 -56 callsubr
        </CharString>
        <CharString name="Ohorngrave">
          -44 callgsubr
          51 -21 35 -20 107 -20 hstemhm
          694 86 -68 86 hintmask 00000100
          -28 callsubr
          hintmask 00010010
          19 callsubr
          hintmask 11000100
          -96 callsubr
          hintmask 00101000
          -48 385 -68 callgsubr
        </CharString>
        <CharString name="Ohornhookabove">
          -44 callgsubr
          41 -21 45 -20 189 -20 hstemhm
          694 86 -68 86 hintmask 00000100
          -28 callsubr
          hintmask 00010010
          19 callsubr
          hintmask 11000100
          -96 callsubr
          hintmask 00101000
          -16 510 -99 callsubr
        </CharString>
        <CharString name="Ohorntilde">
          -44 callgsubr
          20 78 callsubr
          694 86 -68 86 hintmask 00001000
          -28 callsubr
          hintmask 00000100
          19 callsubr
          hintmask 11001000
          -96 callsubr
          hintmask 00010000
          51 498 -25 callgsubr
          hintmask 00100000
          -93 callgsubr
        </CharString>
        <CharString name="Ohungarumlaut">
          -44 callgsubr
          51 -21 167 -20 -105 callgsubr
          hintmask 00110000
          -108 554 -62 callgsubr
        </CharString>
        <CharString name="Omacron">
          -44 callgsubr
          40 69 -105 callgsubr
          hintmask 00100000
          45 397 -22 callsubr
        </CharString>
        <CharString name="Omega">
          -57 callgsubr
        </CharString>
        <CharString name="Omicron">
          -44 callgsubr
          hstem
          -107 callsubr
          endchar
        </CharString>
        <CharString name="Oogonek">
          -44 callgsubr
          hstem
          -50 callsubr
          endchar
        </CharString>
        <CharString name="Oogonekacute">
          -44 callgsubr
          51 122 callsubr
          hintmask 11000000
          -50 callsubr
          hintmask 00110000
          74 509 -92 callsubr
        </CharString>
        <CharString name="Orogate">
          759 774 344 rmoveto
          42 198 -98 154 -155 18 36 168 rcurveline
          -64 hlineto
          -36 -168 -163 -18 -164 -154 -42 -198 rlinecurve
          -41 -195 99 -151 155 -18 -36 -168 rcurveline
          64 hlineto
          36 168 163 18 163 151 41 195 rlinecurve
          -93 15 rmoveto
          -188 -40 -133 -123 -119 hhcurveto
          -119 -81 123 188 40 hvcurveto
          183 39 135 106 114 hhcurveto
          114 89 -107 -182 -39 hvcurveto
          endchar
        </CharString>
        <CharString name="Oslash">
          74 callsubr
          hstem
          130 91 502 91 vstem
          -82 callsubr
          endchar
        </CharString>
        <CharString name="Oslash.dup">
          74 callsubr
          hstem
          130 91 502 91 vstem
          -82 callsubr
          endchar
        </CharString>
        <CharString name="Oslashacute">
          74 callsubr
          27 122 callsubr
          130 91 502 91 hintmask 11110011
          -82 callsubr
          hintmask 00001100
          52 524 -92 callsubr
        </CharString>
        <CharString name="Otilde">
          -44 callgsubr
          20 65 -7 65 -105 callgsubr
          hintmask 00010000
          51 500 -25 callgsubr
          hintmask 00100000
          -93 callgsubr
        </CharString>
        <CharString name="P">
          -23 callsubr
        </CharString>
        <CharString name="Phi">
          742 21 -21 106 66 350 66 106 -20 hstemhm
          131 93 99 90 -67 90 -76 90 -16 90 -76 90 -67 90 104 93 hintmask 0010000001000000
          758 347 rmoveto
          26 124 -99 102 -147 15 rrcurveto
          hintmask 0001000000100000
          23 106 rlineto
          -90 hlineto
          hintmask 0000101001000000
          -23 -107 -157 -17 -135 -104 -25 -119 rlinecurve
          -26 -119 91 -104 150 -17 rrcurveto
          hintmask 1000010000000000
          -23 -107 rlineto
          90 hlineto
          hintmask 0100101000010000
          23 106 153 15 142 102 27 124 rlinecurve
          -398 -175 rmoveto
          -118 20 -34 79 16 76 rrcurveto
          hintmask 0010000010000000
          16 76 68 79 126 20 rrcurveto
          hintmask 0100000100000000
          231 -175 rmoveto
          -16 -72 -67 -86 -132 -17 rrcurveto
          hintmask 0010000010010000
          74 350 126 -18 30 -85 -15 -72 rlinecurve
          endchar
        </CharString>
        <CharString name="Pi">
          727 21 -21 626 65 hstem
          95 96 344 96 vstem
          631 hmoveto
          147 691 rlineto
          -536 -26 callgsubr
          96 hlineto
          133 626 rlineto
          344 hlineto
          -133 -626 rlineto
          endchar
        </CharString>
        <CharString name="Psi">
          799 21 -21 547 68 79 -20 hstemhm
          351 90 -67 90 -76 90 21 90 hintmask 01100110
          858 550 128 callgsubr
          -80 hlineto
          -43 -38 -10 -165 -35 hvcurveto
          -16 -74 -34 -156 -148 -35 111 519 rcurveline
          -90 hlineto
          -111 -519 -127 35 34 164 11 48 rlinecurve
          149 31 -5 44 -64 hhcurveto
          -80 hlineto
          -14 -65 63 -4 -11 -77 -14 -66 rlinecurve
          hintmask 00001000
          -25 -122 17 -150 170 -24 rrcurveto
          hintmask 10010000
          -23 -107 rlineto
          90 hlineto
          hintmask 00001000
          23 107 235 30 50 225 14 64 rlinecurve
          7 37 24 83 64 4 rrcurveto
          endchar
        </CharString>
        <CharString name="Q">
          759 -106 -21 105 68 602 68 hstem
          130 93 151 93 214 93 vstem
          774 344 rmoveto
          211 45 -115 161 -173 hhcurveto
          -173 -183 -161 -211 -45 hvcurveto
          -208 -44 116 -158 172 hhcurveto
          31 41 7 9 28 hvcurveto
          59 -121 rlineto
          112 hlineto
          -89 160 102 63 87 113 29 135 rlinecurve
          -93 1 rmoveto
          -27 -129 -72 -84 -58 -39 -57 101 rcurveline
          -94 hlineto
          69 -141 rlineto
          -5 -18 -17 -2 -18 hhcurveto
          -117 -88 112 187 39 hvcurveto
          184 39 135 119 120 hhcurveto
          120 83 -120 -183 -39 hvcurveto
          endchar
        </CharString>
        <CharString name="R">
          60 callgsubr
          hstem
          46 callgsubr
          vstem
          -96 callgsubr
          endchar
        </CharString>
        <CharString name="Racute">
          60 callgsubr
          68 callgsubr
          46 callgsubr
          hintmask 11100111
          -96 callgsubr
          hintmask 00011000
          79 361 -92 callsubr
        </CharString>
        <CharString name="Rcaron">
          60 callgsubr
          115 callgsubr
          46 callgsubr
          hintmask 11100111
          -96 callgsubr
          hintmask 00011000
          45 363 -84 callgsubr
        </CharString>
        <CharString name="Rcedilla">
          666 106 callsubr
          315 65 255 59 hstem
          46 callgsubr
          vstem
          -96 callgsubr
          -290 -663 -91 callsubr
        </CharString>
        <CharString name="Rcommaaccent">
          666 106 callsubr
          315 65 255 59 hstemhm
          46 callgsubr
          hintmask 00111111
          -96 callgsubr
          hintmask 11000000
          -290 -663 -91 callsubr
        </CharString>
        <CharString name="Rdblgrave">
          60 callgsubr
          73 87 callgsubr
          46 callgsubr
          hintmask 11100111
          -96 callgsubr
          hintmask 00011000
          -19 239 -87 callgsubr
        </CharString>
        <CharString name="Rdotaccent">
          60 callgsubr
          42 96 hstemhm
          96 callsubr
          23 96 -75 96 71 87 hintmask 1110110010000000
          -96 callgsubr
          hintmask 0001000100000000
          -92 229 -74 callsubr
          hintmask 0001001000000000
          -38 callsubr
        </CharString>
        <CharString name="Rdotbelow">
          666 -200 96 125 77 callgsubr
          110 callsubr
          hintmask 0111100110000000
          -96 callgsubr
          hintmask 1000001000000000
          -291 -707 98 callsubr
        </CharString>
        <CharString name="Rdotbelowmacron">
          666 -200 96 125 77 callgsubr
          62 69 110 callsubr
          hintmask 0111010011000000
          -96 callgsubr
          -291 -707 rmoveto
          hintmask 1000000100000000
          21 96 -18 callgsubr
          hintmask 1000001000000000
          -21 -96 rlineto
          hintmask 0000100000000000
          437 956 -22 callsubr
        </CharString>
        <CharString name="Rho">
          -23 callsubr
        </CharString>
        <CharString name="S">
          120 callgsubr
          hstem
          554 191 rmoveto
          -100 callgsubr
          endchar
        </CharString>
        <CharString name="S_S">
          1142 -22 74 593 71 hstem
          554 191 rmoveto
          -100 callgsubr
          571 hmoveto
          -100 callgsubr
          endchar
        </CharString>
        <CharString name="Sacute">
          120 callgsubr
          51 122 callsubr
          hintmask 11000000
          554 191 rmoveto
          -100 callgsubr
          hintmask 00110000
          107 677 -92 callsubr
        </CharString>
        <CharString name="Scaron">
          120 callgsubr
          41 -21 134 -20 hstemhm
          hintmask 11000000
          554 191 rmoveto
          -100 callgsubr
          hintmask 00110000
          73 679 -84 callgsubr
        </CharString>
        <CharString name="Scedilla">
          120 callgsubr
          hstem
          554 191 rmoveto
          -100 callgsubr
          -229 -237 21 callsubr
        </CharString>
        <CharString name="Scircumflex">
          120 callgsubr
          41 -21 134 -20 hstemhm
          hintmask 11000000
          554 191 rmoveto
          -100 callgsubr
          hintmask 00110000
          44 545 -78 callsubr
        </CharString>
        <CharString name="Sdotbelow">
          571 -200 96 82 74 593 71 hstemhm
          195 96 -75 96 hintmask 01100000
          554 191 rmoveto
          -100 callgsubr
          hintmask 10001000
          -263 -391 -35 callsubr
        </CharString>
        <CharString name="Sigma">
          742 0 76 548 70 hstem
          684 hmoveto
          16 76 rlineto
          -113 hlineto
          -299 -2 rlineto
          -60 hlineto
          255 273 -169 279 rlineto
          61 hlineto
          319 -2 rlineto
          123 hlineto
          25 callgsubr
          -68 177 -293 -310 -333 rlineto
          endchar
        </CharString>
        <CharString name="T">
          119 callsubr
          hstem
          303 96 36 96 vstem
          -81 callgsubr
          endchar
        </CharString>
        <CharString name="T_uni0303">
          119 callsubr
          48 78 callsubr
          303 96 36 96 hintmask 11001100
          -81 callgsubr
          hintmask 00010000
          -32 241 -25 callgsubr
          hintmask 00100100
          -93 callgsubr
        </CharString>
        <CharString name="T_uni0308">
          119 callsubr
          48 86 hstemhm
          303 96 -29 87 -68 87 -41 96 27 87 -68 87 hintmask 1101001000000000
          -81 callgsubr
          hintmask 0010010000000000
          -278 118 rmoveto
          19 -61 callgsubr
          hintmask 0010100010000000
          -66 callgsubr
          hintmask 0010000100000000
          -19 -86 rlineto
          endchar
        </CharString>
        <CharString name="Tau">
          119 callsubr
          hstem
          303 96 36 96 vstem
          -81 callgsubr
          endchar
        </CharString>
        <CharString name="Tcaron">
          119 callsubr
          69 -21 134 -20 hstemhm
          303 96 36 96 hintmask 11001100
          -81 callgsubr
          hintmask 00110000
          -43 252 -84 callgsubr
        </CharString>
        <CharString name="Tcedilla">
          702 -171 -21 168 -20 65 127 callsubr
          hstem
          303 96 36 96 vstem
          -81 callgsubr
          -357 -642 21 callsubr
        </CharString>
        <CharString name="Tdotbelow">
          702 22 callgsubr
          618 70 hstemhm
          260 96 -75 96 -74 96 36 96 hintmask 01100110
          -81 callgsubr
          hintmask 10001000
          -379 -818 -35 callsubr
        </CharString>
        <CharString name="Theta">
          799 -22 67 258 90 258 65 hstem
          130 90 504 90 vstem
          814 344 rmoveto
          209 45 -122 163 -186 hhcurveto
          -186 -191 -164 -208 -44 hvcurveto
          -205 -43 121 -161 186 hhcurveto
          186 191 161 205 43 hvcurveto
          -90 hmoveto
          -180 -38 -143 -119 -134 hhcurveto
          -134 -93 120 179 38 hvcurveto
          185 39 145 122 133 hhcurveto
          133 93 -123 -184 -39 hvcurveto
          -67 -41 rmoveto
          20 90 rlineto
          -388 hlineto
          -20 -90 rlineto
          endchar
        </CharString>
        <CharString name="Thorn">
          600 21 -21 180 59 270 59 126 -20 hstem
          98 90 vstem
          621 374 rmoveto
          94 20 -57 100 -142 hhcurveto
          -133 hlineto
          27 126 rlineto
          -90 -80 callsubr
          90 hlineto
          38 180 rlineto
          126 hlineto
          167 86 116 78 16 hvcurveto
          -87 hmoveto
          -48 -10 -55 -87 -133 hhcurveto
          -97 hlineto
          57 270 rlineto
          89 hlineto
          120 43 -73 -62 -14 hvcurveto
          endchar
        </CharString>
        <CharString name="Tlinebelow">
          702 -186 69 138 127 callsubr
          hstemhm
          303 96 36 96 hintmask 01111000
          -81 callgsubr
          hintmask 10000000
          -239 -804 -60 callgsubr
        </CharString>
        <CharString name="U">
          11 callgsubr
          hstem
          -10 callgsubr
          vstem
          -102 callgsubr
          endchar
        </CharString>
        <CharString name="U_uni032F">
          707 -221 -21 109 71 40 59 657 -20 -9 callsubr
          hintmask 00111110
          -102 callgsubr
          hintmask 11000000
          -185 -475 rmoveto
          112 21 -71 -45 callgsubr
        </CharString>
        <CharString name="Uacute">
          11 callgsubr
          93 -21 122 -20 -9 callsubr
          hintmask 11001110
          -102 callgsubr
          hintmask 00110000
          68 635 -92 callsubr
        </CharString>
        <CharString name="Ubreve">
          11 callgsubr
          72 71 109 -20 -9 callsubr
          hintmask 11001110
          -102 callgsubr
          hintmask 00110000
          64 693 -98 callgsubr
          71 -68 86 hhcurveto
          90 99 71 109 25 hvcurveto
          endchar
        </CharString>
        <CharString name="Ucaron">
          11 callgsubr
          83 -21 134 -20 -9 callsubr
          hintmask 11001110
          -102 callgsubr
          hintmask 00110000
          34 637 -84 callgsubr
        </CharString>
        <CharString name="Ucircumflex">
          11 callgsubr
          83 -21 134 -20 -9 callsubr
          hintmask 11001110
          -102 callgsubr
          hintmask 00110000
          5 503 -78 callsubr
        </CharString>
        <CharString name="Udblgrave">
          11 callgsubr
          93 -21 167 -20 -9 callsubr
          hintmask 11001110
          -102 callgsubr
          hintmask 00110000
          -2 513 -87 callgsubr
        </CharString>
        <CharString name="Udieresis">
          11 callgsubr
          62 86 16 callgsubr
          hintmask 1101000101000000
          -102 callgsubr
          hintmask 0010010000000000
          -201 503 rmoveto
          19 -61 callgsubr
          hintmask 0010100010000000
          -66 callgsubr
          hintmask 0010001000000000
          -19 -86 rlineto
          endchar
        </CharString>
        <CharString name="Udieresisacute">
          11 callgsubr
          62 86 73 -21 122 -20 16 callgsubr
          hintmask 1100010001010000
          -102 callgsubr
          hintmask 0010000100000000
          -201 503 rmoveto
          19 -61 callgsubr
          hintmask 0010001000100000
          -66 callgsubr
          hintmask 0011100010000000
          -19 -86 rlineto
          195 260 -92 callsubr
        </CharString>
        <CharString name="Udieresiscaron">
          11 callgsubr
          62 86 63 -21 134 -20 16 callgsubr
          hintmask 1100010001010000
          -102 callgsubr
          hintmask 0010000100000000
          -201 503 rmoveto
          19 -61 callgsubr
          hintmask 0010001000100000
          -66 callgsubr
          hintmask 0011100010000000
          -19 -86 rlineto
          161 262 -84 callgsubr
        </CharString>
        <CharString name="Udieresisgrave">
          11 callgsubr
          62 86 73 -21 122 -20 16 callgsubr
          hintmask 1100010001010000
          -102 callgsubr
          hintmask 0010000100000000
          -201 503 rmoveto
          19 -61 callgsubr
          hintmask 0010001000100000
          -66 callgsubr
          hintmask 0011100010000000
          -19 -86 rlineto
          73 138 -68 callgsubr
        </CharString>
        <CharString name="Udotbelow">
          707 -200 96 82 59 657 -20 hstemhm
          243 96 -76 96 -75 96 198 83 15 83 hintmask 01110011
          -102 callgsubr
          hintmask 10000100
          -302 -433 -56 callsubr
        </CharString>
        <CharString name="Ugrave">
          11 callgsubr
          93 -21 122 -20 -9 callsubr
          hintmask 11001110
          -102 callgsubr
          hintmask 00110000
          -54 513 -68 callgsubr
        </CharString>
        <CharString name="Uhookabove">
          11 callgsubr
          83 -21 214 -20 -9 callsubr
          hintmask 11001110
          -102 callgsubr
          hintmask 00110000
          -22 638 -99 callsubr
        </CharString>
        <CharString name="Uhorn">
          707 -22 59 744 -20 hstemhm
          144 96 3 96 -83 83 236 83 0 83 -67 83 16 87 -69 87 hintmask 0100000001000000
          -5 callgsubr
          hintmask 1010110110000000
          -76 callgsubr
          hintmask 1011010000000000
          -61 callsubr
          hintmask 0000001010000000
          83 390 118 73 rlineto
          endchar
        </CharString>
        <CharString name="Uhornacute">
          707 -22 59 730 -21 35 -20 107 -83 callgsubr
          -159 174 -92 callsubr
        </CharString>
        <CharString name="Uhorndotbelow">
          707 -200 96 82 59 744 -20 hstemhm
          144 96 3 96 -83 83 -76 96 -75 96 195 83 0 83 -67 83 16 87 -69 87 hintmask 0010000000001000
          -5 callgsubr
          hintmask 0101010010110000
          -76 callgsubr
          hintmask 0101100010000000
          -61 callsubr
          hintmask 0000000001010000
          83 390 118 73 rlineto
          hintmask 1000000100000000
          -500 -894 99 callsubr
        </CharString>
        <CharString name="Uhorngrave">
          707 -22 59 730 -21 35 -20 107 -83 callgsubr
          -252 52 -68 callgsubr
        </CharString>
        <CharString name="Uhornhookabove">
          707 -22 59 720 -21 45 -20 189 -83 callgsubr
          -220 177 -99 callsubr
        </CharString>
        <CharString name="Uhorntilde">
          707 -22 59 699 78 callsubr
          144 96 3 96 -83 83 236 83 0 83 -67 83 16 87 -69 87 hintmask 0000000000100000
          -5 callgsubr
          hintmask 1001011011000000
          -76 callgsubr
          hintmask 1001101000000000
          -61 callsubr
          hintmask 0000000101000000
          83 390 118 73 rlineto
          hintmask 0010000000000000
          -153 165 -25 callgsubr
          hintmask 0100000000000000
          -63 callsubr
          hintmask 0010000000000000
          16 -22 -19 15 -27 hhcurveto
          hintmask 0100010000000000
          -51 -58 -3 callsubr
          hintmask 0010000000000000
          -15 callgsubr
          19 -15 -12 15 hvcurveto
          hintmask 0100000000000000
          -16 21 -8 callgsubr
          hintmask 0010000000000000
          -25 callsubr
        </CharString>
        <CharString name="Uhungarumlaut">
          11 callgsubr
          93 -21 167 -20 -9 callsubr
          hintmask 11001110
          -102 callgsubr
          hintmask 00110000
          -114 680 -62 callgsubr
        </CharString>
        <CharString name="Umacron">
          11 callgsubr
          82 69 -9 callsubr
          hintmask 11011100
          -102 callgsubr
          hintmask 00100000
          39 523 -22 callsubr
        </CharString>
        <CharString name="Uogonek">
          707 -212 70 120 59 657 -20 hstem
          -10 callgsubr
          vstem
          661 233 rmoveto
          98 461 -31 callsubr
          -98 -461 rlineto
          -134 -29 -100 -62 -84 hhcurveto
          -83 -70 62 133 28 hvcurveto
          99 462 -18 callgsubr
          -98 -460 -30 -140 87 -103 125 -12 rlinecurve
          -40 -28 -32 -38 -7 -40 6 callsubr
          6 34 32 28 39 23 123 19 117 103 28 130 rrcurveto
          endchar
        </CharString>
        <CharString name="Upsilon">
          799 21 -21 644 72 hstem
          57 85 209 96 209 85 cntrmask 00111000
          859 555 rmoveto
          105 19 -72 56 -77 hhcurveto
          -128 -65 -137 -82 -31 hvcurveto
          -1 hlineto
          103 5 -18 116 -118 hhcurveto
          -78 -95 -56 -105 -25 hvcurveto
          83 hlineto
          60 16 46 29 39 hhcurveto
          91 18 -94 -175 -37 hvcurveto
          -80 -375 rlineto
          96 hlineto
          80 375 rlineto
          195 41 64 74 81 hhcurveto
          39 34 -29 -60 -10 hvcurveto
          endchar
        </CharString>
        <CharString name="Uring">
          10 callgsubr
          47 74 47 -9 callsubr
          hintmask 11011100
          -102 callgsubr
          hintmask 01100000
          -92 545 rmoveto
          -32 -7 -32 -5 -20 hhcurveto
          -19 -30 6 31 6 hvcurveto
          32 7 32 5 20 hhcurveto
          19 31 -5 -32 -7 -41 callsubr
        </CharString>
        <CharString name="Utilde">
          11 callgsubr
          62 65 -7 65 -9 callsubr
          hintmask 11001110
          -102 callgsubr
          hintmask 00010000
          45 626 -25 callgsubr
          hintmask 00100000
          -63 callsubr
          hintmask 00010000
          16 -22 -19 15 -27 hhcurveto
          hintmask 00101000
          -51 -58 -3 callsubr
          hintmask 00010000
          -15 callgsubr
          19 -15 -12 15 hvcurveto
          hintmask 00100000
          -16 21 -8 callgsubr
          hintmask 00010000
          -25 callsubr
        </CharString>
        <CharString name="V">
          120 callsubr
          hstem
          820 694 rmoveto
          -83 hlineto
          -192 -312 -17 -27 -134 -220 -26 -59 rlinecurve
          -1 hlineto
          1 53 -37 196 -12 63 -56 306 rcurveline
          -101 hlineto
          133 -37 callgsubr
          96 hlineto
          endchar
        </CharString>
        <CharString name="W">
          972 51 callgsubr
          -92 callgsubr
          endchar
        </CharString>
        <CharString name="Wacute">
          972 -14 callsubr
          93 122 callsubr
          hintmask 11000000
          -92 callgsubr
          hintmask 00110000
          114 868 -92 callsubr
        </CharString>
        <CharString name="Wcircumflex">
          972 -14 callsubr
          83 -21 134 -20 hstemhm
          hintmask 11000000
          -92 callgsubr
          hintmask 00110000
          51 -3 callgsubr
        </CharString>
        <CharString name="Wdieresis">
          972 -14 callsubr
          62 86 hstemhm
          505 36 callsubr
          hintmask 11000000
          -92 callgsubr
          hintmask 00101000
          -155 105 callsubr
          hintmask 00110010
          -66 callgsubr
          hintmask 00100100
          -19 -86 rlineto
          endchar
        </CharString>
        <CharString name="Wgrave">
          972 -14 callsubr
          93 122 callsubr
          hintmask 11000000
          -92 callgsubr
          hintmask 00110000
          -8 746 -68 callgsubr
        </CharString>
        <CharString name="X">
          3 callgsubr
        </CharString>
        <CharString name="Xi">
          685 0 80 -80 81 237 80 209 81 -80 80 hstemhm
          hintmask 00001000
          764 607 rmoveto
          17 81 rlineto
          -586 hlineto
          hintmask 00010000
          -17 -81 rlineto
          129 hlineto
          hintmask 00001000
          164 1 rlineto
          hintmask 01010000
          164 -1 rlineto
          6 -607 rmoveto
          17 81 rlineto
          -132 hlineto
          hintmask 10000000
          -167 -1 rlineto
          hintmask 01100000
          -167 1 rlineto
          -132 hlineto
          -17 -81 rlineto
          595 318 rmoveto
          17 80 rlineto
          -456 hlineto
          -17 -80 rlineto
          endchar
        </CharString>
        <CharString name="Y">
          120 callsubr
          hstemhm
          297 93 -34 93 -21 93 hintmask 01001000
          831 694 rmoveto
          -94 hlineto
          -216 -236 -93 -105 -44 97 -119 244 rlineto
          -114 hlineto
          hintmask 00010000
          205 -416 rlineto
          hintmask 10100000
          -59 -278 rlineto
          93 hlineto
          hintmask 01010000
          59 278 rlineto
          endchar
        </CharString>
        <CharString name="Yacute">
          120 callsubr
          93 -21 122 -20 -75 callgsubr
          hintmask 00110000
          270 590 -92 callsubr
        </CharString>
        <CharString name="Ycircumflex">
          120 callsubr
          83 -21 134 -20 -75 callgsubr
          hintmask 00110010
          207 458 -78 callsubr
        </CharString>
        <CharString name="Ydieresis">
          120 callsubr
          62 86 hstemhm
          297 93 -34 93 -86 87 -68 87 -41 93 30 87 -68 87 hintmask 0100000100000000
          831 694 rmoveto
          -94 hlineto
          -216 -236 -93 -105 -44 97 -119 244 rlineto
          -114 hlineto
          hintmask 0000100000000000
          205 -416 rlineto
          hintmask 1001000000000000
          -59 -278 rlineto
          93 hlineto
          hintmask 0100100000000000
          59 278 rlineto
          hintmask 0010001000000000
          1 458 rmoveto
          19 -61 callgsubr
          hintmask 0010010001000000
          -66 callgsubr
          hintmask 0010000010000000
          -19 -86 rlineto
          endchar
        </CharString>
        <CharString name="Ydotbelow">
          107 callsubr
          694 -20 hstemhm
          253 96 -75 96 -73 93 -34 93 -21 93 hintmask 00100001
          831 694 rmoveto
          -94 hlineto
          -216 -236 -93 -105 -44 97 -119 244 rlineto
          -114 hlineto
          hintmask 00000010
          205 -416 rlineto
          hintmask 01000100
          -59 -278 rlineto
          93 hlineto
          hintmask 00100010
          59 278 rlineto
          hintmask 10001000
          -100 -478 -35 callsubr
        </CharString>
        <CharString name="Ygrave">
          120 callsubr
          93 -21 122 -20 -75 callgsubr
          hintmask 00110000
          148 468 -68 callgsubr
        </CharString>
        <CharString name="Yhookabove">
          120 callsubr
          83 -21 214 -20 -75 callgsubr
          hintmask 00110000
          180 593 -99 callsubr
        </CharString>
        <CharString name="Ytilde">
          120 callsubr
          62 65 -7 65 -75 callgsubr
          hintmask 00010000
          247 581 -25 callgsubr
          hintmask 00100000
          -93 callgsubr
        </CharString>
        <CharString name="Z">
          75 callsubr
          hstem
          57 519 vstem
          -70 callgsubr
          -10 -45 rlineto
          endchar
        </CharString>
        <CharString name="Zacute">
          75 callsubr
          68 callgsubr
          57 519 hintmask 11001000
          -70 callgsubr
          -10 -45 rlineto
          hintmask 00110000
          632 868 -92 callsubr
        </CharString>
        <CharString name="Zcaron">
          75 callsubr
          115 callgsubr
          57 519 hintmask 11001000
          -70 callgsubr
          -10 -45 rlineto
          hintmask 00110000
          598 870 -84 callgsubr
        </CharString>
        <CharString name="Zdotaccent">
          75 callsubr
          42 96 hstemhm
          57 519 -154 96 -75 96 hintmask 11010000
          -70 callgsubr
          -10 -45 rlineto
          hintmask 00100100
          461 736 -74 callsubr
          hintmask 00101000
          -38 callsubr
        </CharString>
        <CharString name="Zdotbelow">
          628 -200 96 104 70 557 67 hstemhm
          57 519 -353 96 -75 96 hintmask 01101000
          -70 callgsubr
          rlineto
          hintmask 01010000
          -10 -45 rlineto
          hintmask 10000100
          262 -200 -56 callsubr
        </CharString>
        <CharString name="Zeta">
          75 callsubr
          hstem
          57 519 vstem
          -70 callgsubr
          -10 -45 rlineto
          endchar
        </CharString>
        <CharString name="a">
          -65 callgsubr
          hstem
          -107 callgsubr
          endchar
        </CharString>
        <CharString name="aacute">
          -65 callgsubr
          94 callsubr
          hintmask 11100000
          -107 callgsubr
          hintmask 00011000
          160 502 -77 callgsubr
        </CharString>
        <CharString name="abreve">
          -65 callgsubr
          60 71 109 -54 callsubr
          endchar
        </CharString>
        <CharString name="abreveacute">
          -65 callgsubr
          60 71 266 -54 callsubr
          2 157 -92 callsubr
        </CharString>
        <CharString name="abrevedotbelow">
          61 callsubr
          60 71 109 -20 hstemhm
          156 96 -75 96 hintmask 01111110
          -107 callgsubr
          -33 callsubr
          hintmask 10000001
          -318 -901 -74 callsubr
          hintmask 10000010
          -38 callsubr
        </CharString>
        <CharString name="abrevegrave">
          -65 callgsubr
          60 71 109 -54 callsubr
          -24 35 -9 callgsubr
        </CharString>
        <CharString name="abrevehookabove">
          -65 callgsubr
          60 71 338 -54 callsubr
          -42 150 80 callgsubr
          -28 hvcurveto
          -1 -1 6 -42 25 callsubr
          hlineto
          27 22 -26 callsubr
          12 -1 -7 8 32 callgsubr
          6 24 18 12 37 19 rlinecurve
          8 4 5 3 5 2 20 12 15 19 4 20 rrcurveto
          endchar
        </CharString>
        <CharString name="abrevetilde">
          -65 callgsubr
          60 71 164 78 callsubr
          hintmask 11100000
          -107 callgsubr
          hintmask 00010100
          -33 callsubr
          34 178 -46 callsubr
          58 46 77 18 hvcurveto
          endchar
        </CharString>
        <CharString name="acaron">
          -65 callgsubr
          85 -21 172 -20 hstemhm
          hintmask 11100000
          -107 callgsubr
          hintmask 00011000
          170 505 -80 callgsubr
        </CharString>
        <CharString name="acircumflex">
          -65 callgsubr
          85 -21 172 -20 hstemhm
          hintmask 11100000
          -107 callgsubr
          hintmask 00011000
          134 333 -88 callsubr
          endchar
        </CharString>
        <CharString name="acircumflexacute">
          -65 callgsubr
          85 -21 291 -47 callsubr
          107 291 9 callgsubr
        </CharString>
        <CharString name="acircumflexdotbelow">
          61 callsubr
          85 -21 172 -20 hstemhm
          156 96 -75 96 hintmask 01111110
          -107 callgsubr
          134 333 -88 callsubr
          hintmask 10000001
          -203 -725 -74 callsubr
          hintmask 10000010
          -38 callsubr
        </CharString>
        <CharString name="acircumflexgrave">
          -65 callgsubr
          85 -21 134 -47 callsubr
          82 169 rmoveto
          -89 hlineto
          -172 122 rlineto
          111 hlineto
          endchar
        </CharString>
        <CharString name="acircumflexhookabove">
          -65 callgsubr
          85 -21 363 -47 callsubr
          163 284 rmoveto
          5 24 -5 21 -16 14 rrcurveto
          15 -17 38 callgsubr
          6 -42 25 callsubr
          hlineto
          27 22 -26 callsubr
          12 -1 -7 8 -72 callgsubr
          -8 -41 -5 -19 rcurveline
          1 -1 rlineto
          27 hlineto
          1 1 5 19 5 24 18 12 37 19 rlinecurve
          8 4 5 3 5 2 20 12 15 19 4 20 rrcurveto
          endchar
        </CharString>
        <CharString name="acircumflextilde">
          -65 callgsubr
          85 -21 189 78 callsubr
          hintmask 11100000
          -107 callgsubr
          hintmask 00010100
          57 callgsubr
          140 312 -46 callsubr
          59 46 77 17 hvcurveto
          endchar
        </CharString>
        <CharString name="acute">
          514 548 56 callgsubr
          hstem
          550 694 -77 callgsubr
        </CharString>
        <CharString name="acute.cap">
          514 517 123 callsubr
          hstem
          579 618 -92 callsubr
        </CharString>
        <CharString name="acute.dup">
          514 548 56 callgsubr
          hstem
          550 694 -77 callgsubr
        </CharString>
        <CharString name="acute.ts1">
          514 560 -21 187 -20 hstem
          581 726 rmoveto
          -83 hlineto
          -130 -140 -43 -47 rlineto
          64 hlineto
          endchar
        </CharString>
        <CharString name="adblgrave">
          -65 callgsubr
          94 callsubr
          hintmask 11100000
          -107 callgsubr
          hintmask 00011000
          126 335 -87 callgsubr
        </CharString>
        <CharString name="adieresis">
          -65 callgsubr
          107 86 hstemhm
          245 -14 callgsubr
          hintmask 11100100
          -107 callgsubr
          hintmask 00010100
          -48 376 4 callsubr
          hintmask 00011001
          -63 callgsubr
          hintmask 00010010
          82 callgsubr
        </CharString>
        <CharString name="adotbelow">
          61 callsubr
          hstemhm
          156 96 -75 96 hintmask 01111000
          -107 callgsubr
          hintmask 10000100
          -128 -392 -56 callsubr
        </CharString>
        <CharString name="ae">
          -77 callsubr
        </CharString>
        <CharString name="ae.dup">
          -77 callsubr
        </CharString>
        <CharString name="aeacute">
          742 -11 65 0 63 0 63 39 59 118 65 -63 63 94 callsubr
          72 77 233 77 -71 89 -10 89 70 89 hintmask 0000010000010000
          759 219 rmoveto
          7 36 14 70 -22 59 rrcurveto
          58 -21 -51 19 -46 hhcurveto
          -38 -63 -11 -65 -72 hvcurveto
          49 -23 -43 27 -62 hhcurveto
          -65 -50 -16 -28 -56 hvcurveto
          -8 -71 rlineto
          25 38 54 27 73 hhcurveto
          hintmask 0000000000100000
          12 36 0 -43 15 hvcurveto
          hintmask 0100000011000000
          11 -27 -3 -15 -14 -65 -142 -1 -149 -39 -19 -91 rrcurveto
          hintmask 1001000001011000
          -29 -6 -5 -99 103 hhcurveto
          30 139 0 75 71 hvcurveto
          -39 26 51 -36 75 hhcurveto
          55 57 19 30 47 hvcurveto
          9 69 rlineto
          -48 -67 -63 -5 -24 hhcurveto
          -77 -50 66 99 16 hvcurveto
          250 59 rmoveto
          hintmask 0101100010101000
          -232 hlineto
          68 32 60 50 57 hhcurveto
          39 49 -24 -94 -5 hvcurveto
          -347 -148 rmoveto
          -5 -21 -5 -23 -38 -17 rrcurveto
          -12 -30 -38 -3 -17 hhcurveto
          -62 -25 31 33 7 hvcurveto
          6 28 26 15 58 14 rrcurveto
          10 42 41 5 41 hhcurveto
          hintmask 0010000000000000
          6 1 -1 -9 -1 hvcurveto
          -1 -21 -1 -2 -5 -27 rrcurveto
          hintmask 0000001100000000
          302 564 -77 callgsubr
        </CharString>
        <CharString name="agrave">
          -65 callgsubr
          94 callsubr
          hintmask 11100000
          -107 callgsubr
          hintmask 00011000
          51 335 -49 callgsubr
        </CharString>
        <CharString name="ahookabove">
          -65 callgsubr
          64 -21 214 -20 hstemhm
          hintmask 11100000
          -107 callgsubr
          hintmask 00011000
          103 447 -101 callsubr
        </CharString>
        <CharString name="amacron">
          -65 callgsubr
          115 69 hstemhm
          hintmask 11100000
          -107 callgsubr
          hintmask 00010000
          174 384 -60 callgsubr
        </CharString>
        <CharString name="ampersand">
          779 -22 68 37 65 193 65 245 65 hstemhm
          446 68 0 83 hintmask 11110100
          720 -7 rmoveto
          15 71 rlineto
          -15 -56 -44 -3 -22 hhcurveto
          -17 -41 0 35 -41 hvcurveto
          58 42 109 95 85 169 -62 19 rcurveline
          -54 -108 -77 -101 -101 -72 -15 16 -72 105 -26 95 88 64 97 70 17 82 rrcurveto
          77 17 -34 82 -83 hhcurveto
          -90 -73 -96 -106 -23 hvcurveto
          -11 -53 -1 -57 9 -53 -121 -85 rcurveline
          -15 -12 -48 -42 -14 -64 rrcurveto
          -91 -19 61 -79 110 hhcurveto
          84 80 30 28 53 hvcurveto
          -51 58 56 -7 40 hhcurveto
          45 50 8 7 28 hvcurveto
          -231 565 rmoveto
          -10 -47 -48 -46 -85 -61 -9 80 12 58 3 11 rrcurveto
          hintmask 11011000
          53 11 40 45 43 hhcurveto
          53 -6 -70 -23 -4 hvcurveto
          -92 -475 rmoveto
          -29 -59 -62 -8 -33 hhcurveto
          -75 -19 62 47 10 hvcurveto
          5 25 13 29 34 28 5 4 4 2 65 46 21 -62 19 -32 12 -22 18 -31 18 -32 24 -27 rrcurveto
          endchar
        </CharString>
        <CharString name="anglearc">
          799 -71 -21 686 -20 hstemhm
          586 42 -3 42 -32 42 -6 42 hintmask 00010000
          745 21 rmoveto
          2 9 -4 8 -7 3 -128 49 rcurveline
          28 52 20 54 11 55 rrcurveto
          hintmask 00001000
          12 55 4 54 -6 52 148 49 rcurveline
          9 3 7 8 2 9 3 15 -11 10 -16 -5 rrcurveto
          hintmask 11100100
          -148 -50 -9 49 -17 45 -24 41 rlinecurve
          5 -3 -6 3 -6 hhcurveto
          -12 -11 -9 -12 -2 hvcurveto
          -1 -5 0 -5 2 -3 22 -38 16 -41 8 -44 -499 -166 rcurveline
          -9 -3 -8 -8 -2 -9 -2 -9 5 -8 7 -3 429 -166 rcurveline
          -27 -44 -33 -41 -38 -38 -4 -3 -2 -5 -1 -5 rrcurveto
          114 callgsubr
          6 7 3 5 5 hvcurveto
          42 41 36 45 30 49 127 -50 rcurveline
          13 -5 16 10 3 15 rrcurveto
          -120 230 rmoveto
          -10 -50 -19 -50 -24 -47 -379 147 rcurveline
          hintmask 00001000
          442 147 rlineto
          hintmask 00010000
          4 -47 -3 -50 -11 -50 rrcurveto
          endchar
        </CharString>
        <CharString name="angleleft">
          400 -229 -21 1000 -20 21 -20 hstemhm
          hintmask 00100000
          294 -228 rmoveto
          2 vlineto
          1 12 -5 13 -2 12 -63 361 rcurveline
          -10 54 rlineto
          7 -5 9 2 8 vhcurveto
          1 4 3 5 3 4 53 88 rcurveline
          193 323 10 16 17 21 4 17 rlinecurve
          12 2 -5 11 -12 hhcurveto
          hintmask 11000000
          -6 -1 -18 -3 -10 -27 -10 -16 rlinecurve
          -253 -421 -6 -10 -10 -12 -2 -11 rlinecurve
          -2 -10 4 -11 2 -9 9 -54 rcurveline
          64 -366 3 -9 -2 -40 23 -1 rlinecurve
          12 12 10 12 3 hvcurveto
          endchar
        </CharString>
        <CharString name="angleright">
          400 -229 -21 469 20 491 20 1 -20 hstemhm
          hintmask 00010000
          339 251 rmoveto
          3 11 -5 11 -2 10 -74 420 rcurveline
          11 -2 2 37 -22 hhcurveto
          hintmask 11100000
          -6 -1 rlineto
          -10 -9 -13 -7 -2 hvcurveto
          -2 -12 5 -13 2 -10 73 -417 rcurveline
          1 -8 4 -10 -2 -9 rrcurveto
          -4 -3 -4 -2 -4 vhcurveto
          -12 -19 -41 -68 -139 -231 -82 -137 -3 -5 -2 -5 -1 -6 rlinecurve
          -11 -1 9 -7 11 hhcurveto
          20 2 11 27 9 15 256 425 rcurveline
          5 10 9 11 2 11 rrcurveto
          endchar
        </CharString>
        <CharString name="aogonek">
          494 -11 65 -54 54 344 63 -59 callgsubr
          endchar
        </CharString>
        <CharString name="aogonekacute">
          494 -11 65 -54 54 344 63 87 -21 167 -20 -59 callgsubr
          hintmask 00011000
          160 502 -77 callgsubr
        </CharString>
        <CharString name="aring">
          -65 callgsubr
          56 47 74 47 hstemhm
          hintmask 11100000
          -107 callgsubr
          hintmask 00011000
          45 409 -74 callgsubr
        </CharString>
        <CharString name="aringacute">
          -65 callgsubr
          56 47 74 47 157 -20 hstemhm
          hintmask 11100000
          -107 callgsubr
          hintmask 00011100
          45 409 -8 callsubr
        </CharString>
        <CharString name="asciicircum">
          556 583 -21 123 59 hstem
          119 566 vstem
          685 584 rmoveto
          -249 160 -317 -160 6 -22 298 123 245 -123 rlineto
          endchar
        </CharString>
        <CharString name="asciitilde">
          556 193 124 callsubr
          617 290 5 callgsubr
          26 -17 -20 30 51 callsubr
        </CharString>
        <CharString name="asciitilde.low">
          556 0 124 callsubr
          576 97 5 callgsubr
          25 -17 -20 31 51 callsubr
        </CharString>
        <CharString name="asterisk">
          514 327 79 callgsubr
          hstemhm
          242 73 -22 73 6 73 hintmask 01101000
          540 436 rmoveto
          4 22 -10 6 -11 6 -101 58 rcurveline
          124 57 13 6 15 7 5 22 rlinecurve
          22 4 -13 15 -19 hhcurveto
          -10 -5 -2 -8 -13 hvcurveto
          -116 -70 38 137 rlineto
          25 5 -19 11 -15 hhcurveto
          -19 -20 -13 -23 -5 hvcurveto
          -20 -137 -87 69 rlineto
          11 -12 -2 0 -9 hhcurveto
          -19 -21 -15 -22 -4 hvcurveto
          -5 -22 11 -6 11 -6 100 -58 rcurveline
          -124 -57 -12 -6 -16 -7 -4 -22 rlinecurve
          -22 -5 14 -15 19 hhcurveto
          10 2 0 14 23 hvcurveto
          109 66 rlineto
          hintmask 10010000
          -38 -137 rlineto
          -25 -6 19 -11 15 hhcurveto
          19 21 13 23 5 hvcurveto
          1 9 19 128 86 -69 rlineto
          -11 13 2 0 9 hhcurveto
          19 20 15 22 5 hvcurveto
          endchar
        </CharString>
        <CharString name="asterisk.math">
          514 50 79 callgsubr
          hstem
          481 161 rmoveto
          6 28 -29 9 -19 10 -24 13 -23 19 -27 10 1 2 rcurveline
          31 10 31 19 29 13 24 10 33 9 5 28 rrcurveto
          20 5 -12 19 -21 hhcurveto
          -2 hlineto
          -15 -17 -13 -9 -14 hvcurveto
          -31 -17 -31 -23 -32 -16 9 43 17 42 9 43 2 9 rcurveline
          21 5 -16 13 -18 hhcurveto
          -19 -20 -14 -22 -5 hvcurveto
          -2 -7 -2 -9 0 -9 -1 -9 rlinecurve
          -9 -57 -3 -15 -1 -14 -3 -15 rlinecurve
          -24 16 -23 23 -23 17 rrcurveto
          9 -10 -11 13 -15 hhcurveto
          -2 hlineto
          -21 -20 -19 -20 -5 hvcurveto
          -5 -28 29 -9 18 -10 25 -13 23 -19 27 -10 -1 -2 rcurveline
          -31 -10 -31 -19 -30 -13 -23 -10 -33 -9 -6 -28 rrcurveto
          -20 -4 12 -19 21 hhcurveto
          2 hlineto
          15 17 13 9 14 hvcurveto
          30 17 32 23 32 16 -4 -15 -5 -14 -4 -15 -15 -57 rcurveline
          -3 -9 -3 -9 -2 -9 -1 -7 rcurveline
          -22 -5 14 -14 19 hhcurveto
          18 22 13 21 4 hvcurveto
          2 9 9 42 2 44 9 42 rlinecurve
          24 -16 22 -23 24 -17 rrcurveto
          -9 10 11 -13 15 hhcurveto
          2 hlineto
          21 20 19 20 4 hvcurveto
          endchar
        </CharString>
        <CharString name="at">
          685 510 65 0 65 0 65 hstem
          131 79 110 79 cntrmask 11100000
          645 87 rmoveto
          -52 hlineto
          -16 -2 0 -4 -8 hvcurveto
          -23 -63 -55 -6 -36 hhcurveto
          -153 -84 135 158 34 hvcurveto
          170 36 152 123 135 hhcurveto
          54 40 -31 -56 10 hvcurveto
          18 -30 -30 4 -18 hhcurveto
          -103 -109 -99 -129 -27 hvcurveto
          -129 -28 67 -99 103 hhcurveto
          71 132 60 182 39 hvcurveto
          91 19 52 253 -227 hhcurveto
          -183 -191 -156 -202 -43 hvcurveto
          -200 -43 122 -158 187 hhcurveto
          107 92 54 44 49 hvcurveto
          -23 260 rmoveto
          -92 -20 -66 -71 -61 hhcurveto
          -58 -38 68 95 20 hvcurveto
          95 20 67 68 58 hhcurveto
          61 36 -71 -92 -19 hvcurveto
          endchar
        </CharString>
        <CharString name="atilde">
          -65 callgsubr
          88 78 callsubr
          hintmask 11100000
          -107 callgsubr
          hintmask 00001000
          180 480 -69 callsubr
          58 46 77 18 hvcurveto
          endchar
        </CharString>
        <CharString name="b">
          75 callgsubr
          239 -20 hstem
          83 83 65 80 147 83 vstem
          72 callgsubr
          64 297 rlineto
          -80 hlineto
          -148 -694 65 callsubr
          83 callgsubr
          90 callgsubr
        </CharString>
        <CharString name="backslash">
          514 750 -20 hstem
          408 -228 rmoveto
          4 -1 4 -1 9 vhcurveto
          -149 938 rlineto
          12 -2 -2 11 -16 hhcurveto
          -9 -13 -7 -15 -3 hvcurveto
          -1 -4 1 -4 1 -9 150 -938 rcurveline
          -12 1 2 -11 16 hhcurveto
          9 13 7 15 4 hvcurveto
          endchar
        </CharString>
        <CharString name="baht">
          686 0 59 269 65 242 59 hstemhm
          246 68 -27 68 -68 84 -70 68 -68 84 -71 68 81 68 50 87 hintmask 1011000001000000
          668 188 rmoveto
          19 89 -76 70 -104 16 104 25 83 59 16 73 18 87 -82 78 -130 8 15 69 rcurveline
          -68 123 callgsubr
          -203 -80 callsubr
          hintmask 1000000100000000
          203 hlineto
          hintmask 0000010000000000
          -14 -68 rlineto
          hintmask 0000100000000000
          68 hlineto
          hintmask 1110001000100000
          14 68 rlineto
          3 hlineto
          150 126 92 96 20 hvcurveto
          -43 330 rmoveto
          -10 -48 -61 -55 -100 -17 49 233 rcurveline
          77 -13 57 -42 -12 -58 rrcurveto
          -240 -125 rmoveto
          -113 hlineto
          51 242 rlineto
          113 hlineto
          hintmask 0100000100000000
          145 -446 rmoveto
          hintmask 1100000010100000
          -14 -65 -86 -56 -99 -8 56 266 rcurveline
          90 -11 68 -56 -15 -70 rrcurveto
          -267 -130 rmoveto
          -113 hlineto
          57 269 rlineto
          hintmask 0100010000000000
          113 hlineto
          hintmask 1000000010000000
          endchar
        </CharString>
        <CharString name="bar">
          286 750 -20 hstem
          75 43 155 43 vstem
          118 -215 rmoveto
          -4 callsubr
          endchar
        </CharString>
        <CharString name="bigcircle">
          35 callsubr
          614 -90 callsubr
          endchar
        </CharString>
        <CharString name="blanksymbol">
          75 callgsubr
          239 -20 hstemhm
          83 83 65 80 -36 83 -81 80 101 83 hintmask 01000010
          72 callgsubr
          30 139 115 85 rlineto
          hintmask 00000100
          -34 51 -62 -45 rlineto
          hintmask 10111001
          15 67 rlineto
          -80 hlineto
          -30 -137 -98 -73 34 -51 45 33 -99 -466 65 callsubr
          hintmask 10000100
          83 callgsubr
          hintmask 01000011
          90 callgsubr
        </CharString>
        <CharString name="braceleft">
          109 callgsubr
          305 71 cntrmask 11100000
          390 -237 rmoveto
          11 2 -8 1 -9 hhcurveto
          -63 4 -44 30 -3 50 rrcurveto
          12 1 8 7 30 vhcurveto
          32 150 6 29 10 49 1 9 rlinecurve
          2 56 -44 32 -51 16 124 35 13 65 10 45 32 150 rcurveline
          21 98 3 16 39 29 44 33 42 2 27 2 5 1 6 4 2 7 rrcurveto
          13 2 -9 0 -12 hhcurveto
          -109 -99 -53 -72 -16 hvcurveto
          -42 -196 -17 -79 -4 -20 -42 -32 rlinecurve
          -43 -32 -46 -2 -18 -1 rrcurveto
          -5 -9 -3 -10 -2 hvcurveto
          -10 -2 7 -3 5 hhcurveto
          73 -3 39 -35 2 -52 1 -8 -1 -2 -8 -37 -42 -198 rcurveline
          -8 -39 -9 -42 53 -37 rrcurveto
          -30 43 64 -4 23 hhcurveto
          12 9 0 13 3 hvcurveto
          endchar
        </CharString>
        <CharString name="braceright">
          109 callgsubr
          244 71 cntrmask 11100000
          493 250 rmoveto
          10 2 -7 3 -5 hhcurveto
          -72 3 -40 35 -2 52 rrcurveto
          8 0 2 8 37 vhcurveto
          42 198 8 39 9 42 -53 37 rlinecurve
          31 -44 -67 3 -18 hhcurveto
          -12 -10 0 -13 -2 hvcurveto
          -3 -11 8 0 9 -1 63 -4 44 -30 3 -50 1 -12 -2 -8 -6 -30 -32 -150 rcurveline
          -6 -29 -11 -49 -1 -9 -2 -56 45 -32 50 -16 -123 -35 -14 -65 -10 -45 -32 -150 rcurveline
          -20 -98 -4 -16 -39 -29 -44 -33 -41 -2 -28 -2 -5 -1 -6 -4 -1 -7 rrcurveto
          -13 -3 10 0 12 hhcurveto
          105 102 52 73 16 hvcurveto
          42 196 17 79 4 20 42 32 rlinecurve
          44 32 45 2 18 1 rrcurveto
          5 9 3 10 2 hvcurveto
          endchar
        </CharString>
        <CharString name="bracketleft">
          299 -250 65 870 65 hstem
          223 -250 128 callgsubr
          -96 hlineto
          185 870 rlineto
          96 hlineto
          13 65 rlineto
          -173 hlineto
          -212 -1000 rlineto
          endchar
        </CharString>
        <CharString name="bracketright">
          299 -250 65 870 65 hstem
          142 -250 rmoveto
          212 1000 rlineto
          -173 hlineto
          -13 -65 rlineto
          96 hlineto
          -185 -870 rlineto
          -96 108 callsubr
          endchar
        </CharString>
        <CharString name="breve">
          122 callgsubr
          109 20 callgsubr
          endchar
        </CharString>
        <CharString name="breve.cap">
          514 496 71 109 -20 hstem
          23 callgsubr
          endchar
        </CharString>
        <CharString name="breve.ts1">
          628 525 71 130 -20 hstem
          236 65 333 65 vstem
          699 726 -25 callgsubr
          -84 -18 -98 -46 -78 hhcurveto
          -78 -78 48 82 17 hvcurveto
          -65 hlineto
          -126 -26 104 -75 112 hhcurveto
          108 137 70 131 28 hvcurveto
          endchar
        </CharString>
        <CharString name="brokenbar">
          286 750 -20 hstemhm
          75 43 36 43 -3 43 36 43 hintmask 10011000
          237 343 rmoveto
          79 372 rlineto
          14 3 4 21 -21 hhcurveto
          -22 -4 -19 -16 -3 hvcurveto
          -79 -372 rlineto
          -17 -4 4 -17 15 hhcurveto
          14 10 17 17 4 hvcurveto
          -119 -558 rmoveto
          hintmask 01100000
          79 372 rlineto
          17 4 -3 17 -14 hhcurveto
          -15 -11 -17 -17 -4 hvcurveto
          -79 -372 29 callgsubr
          endchar
        </CharString>
        <CharString name="bullet">
          799 116 290 hstemhm
          280 290 -229 290 hintmask 10100000
          112 callgsubr
          hintmask 11000000
          -61 -290 rlineto
          endchar
        </CharString>
        <CharString name="c">
          50 callgsubr
          hstem
          83 83 195 83 vstem
          -86 callgsubr
          endchar
        </CharString>
        <CharString name="cacute">
          50 callgsubr
          94 callsubr
          83 83 195 83 hintmask 11001100
          -86 callgsubr
          hintmask 00110000
          109 657 -77 callgsubr
        </CharString>
        <CharString name="caron">
          514 77 callsubr
          560 697 -80 callgsubr
        </CharString>
        <CharString name="caron.cap">
          96 callgsubr
          134 -20 hstem
          545 620 -84 callgsubr
        </CharString>
        <CharString name="caron.ts1">
          628 511 -21 258 -20 hstem
          648 748 rmoveto
          -64 -2 -43 -50 -108 -135 -64 169 -8 16 -19 2 rlineto
          -45 hlineto
          6 -24 10 -24 8 -23 57 -169 rcurveline
          -9 3 -1 -9 14 hhcurveto
          48 hlineto
          14 6 15 10 8 hvcurveto
          41 52 84 112 18 23 19 22 16 24 rlinecurve
          endchar
        </CharString>
        <CharString name="ccaron">
          50 callgsubr
          85 -21 172 -20 hstemhm
          83 83 195 83 hintmask 11001100
          -86 callgsubr
          hintmask 00110000
          119 660 -80 callgsubr
        </CharString>
        <CharString name="ccedilla">
          50 callgsubr
          hstem
          83 83 195 83 vstem
          -86 callgsubr
          -145 -83 21 callsubr
        </CharString>
        <CharString name="ccircumflex">
          50 callgsubr
          85 -21 172 -20 hstemhm
          83 83 195 83 hintmask 11001100
          -86 callgsubr
          hintmask 00110000
          83 488 -88 callsubr
          endchar
        </CharString>
        <CharString name="cdotaccent">
          50 callgsubr
          102 96 hstemhm
          83 83 157 96 -76 96 -78 83 hintmask 11010010
          -86 callgsubr
          hintmask 00100100
          -16 526 17 callgsubr
          hintmask 00101000
          -20 -96 rlineto
          endchar
        </CharString>
        <CharString name="cedilla">
          58 callgsubr
        </CharString>
        <CharString name="cedilla.dup">
          58 callgsubr
        </CharString>
        <CharString name="cent">
          457 393 68 hstem
          216 83 -68 68 -68 83 cntrmask 01110000
          435 37 rmoveto
          9 71 -47 -28 -49 -18 -51 -4 rlinecurve
          71 334 50 -2 27 -13 38 -30 rlinecurve
          28 70 -44 29 -28 12 -56 3 rlinecurve
          11 51 rlineto
          -68 hlineto
          -12 -55 -119 -23 -89 -106 -23 -106 rlinecurve
          -23 -110 53 -99 103 -20 -13 -61 rcurveline
          68 hlineto
          12 58 59 5 49 18 44 24 rlinecurve
          -204 27 rmoveto
          -56 19 -25 62 16 78 14 65 43 75 76 23 rrcurveto
          endchar
        </CharString>
        <CharString name="cent.oldstyle">
          50 callgsubr
          hstem
          83 83 8 83 104 83 vstem
          435 37 rmoveto
          9 71 rlineto
          -33 -55 -57 -18 -60 hhcurveto
          -12 -12 1 3 -9 hvcurveto
          164 327 30 -6 22 -13 28 -22 rlinecurve
          28 70 -28 18 -20 11 -26 7 rlinecurve
          30 59 rlineto
          -71 hlineto
          -26 -51 rlineto
          -9 hlineto
          -142 -111 -120 -119 -25 hvcurveto
          -17 -83 24 -76 58 -41 -45 -90 rcurveline
          71 hlineto
          31 63 rlineto
          -4 16 18 -2 18 hhcurveto
          70 57 21 27 51 hvcurveto
          -99 356 rmoveto
          -151 -297 -22 30 -8 45 11 52 rlinecurve
          16 74 54 89 100 7 rrcurveto
          endchar
        </CharString>
        <CharString name="centigrade">
          885 -21 68 420 43 139 46 -46 68 -65 43 hstemhm
          368 96 hintmask 10100100
          842 42 rmoveto
          5 22 -1 23 4 22 -27 -13 -24 -18 -30 -10 rrcurveto
          -18 -41 -45 -3 -41 hhcurveto
          -155 -53 159 141 30 hvcurveto
          140 30 118 162 160 hhcurveto
          55 44 -15 -26 42 hvcurveto
          6 -5 6 -5 7 -3 34 87 rcurveline
          hintmask 10010100
          23 -59 -61 12 -70 hhcurveto
          -192 -176 -183 -185 -40 hvcurveto
          -181 -38 85 -189 215 hhcurveto
          69 63 14 37 69 hvcurveto
          7 4 3 2 1 6 rrcurveto
          -490 540 rmoveto
          hintmask 01100000
          57 12 -34 56 -70 hhcurveto
          -10 hlineto
          -60 -6 -55 -52 -12 -57 rrcurveto
          -57 -12 34 -56 70 hhcurveto
          10 hlineto
          60 6 55 52 12 57 rrcurveto
          -43 hmoveto
          -38 -8 -41 -34 -38 hhcurveto
          -36 -22 29 35 1 hvcurveto
          1 6 rlineto
          hintmask 00001000
          38 8 41 34 38 hhcurveto
          36 22 -29 -35 -1 hvcurveto
          endchar
        </CharString>
        <CharString name="circumflex">
          514 77 callsubr
          524 525 -88 callsubr
          endchar
        </CharString>
        <CharString name="circumflex.cap">
          96 callgsubr
          134 -20 hstem
          57 callsubr
          endchar
        </CharString>
        <CharString name="circumflex.dup">
          514 77 callsubr
          524 525 -88 callsubr
          endchar
        </CharString>
        <CharString name="colon">
          286 0 102 callsubr
          hintmask 01000100
          261 358 95 callgsubr
          hintmask 01001000
          -18 -86 rlineto
          10 -358 rmoveto
          hintmask 10010000
          70 callgsubr
          hintmask 10100000
          82 callgsubr
        </CharString>
        <CharString name="colonmonetary">
          657 -22 68 602 68 hstemhm
          140 96 69 68 -68 96 95 68 hintmask 11110100
          104 callsubr
          -12 hlineto
          128 602 rlineto
          9 hlineto
          89 callsubr
          -10 hlineto
          17 80 rlineto
          -68 hlineto
          -19 -89 -165 -39 -136 -152 -36 -169 rlinecurve
          -36 -167 70 -154 150 -39 -19 -89 rcurveline
          68 hlineto
          17 80 rlineto
          hintmask 10101000
          11 hlineto
          90 43 15 41 78 hvcurveto
          -272 27 rmoveto
          -95 41 -35 122 26 123 27 129 90 117 109 40 rrcurveto
          endchar
        </CharString>
        <CharString name="comma">
          286 -106 -21 127 86 hstemhm
          99 86 -68 86 hintmask 01010000
          185 1 95 callsubr
          hintmask 11100000
          -18 -42 callgsubr
          endchar
        </CharString>
        <CharString name="copyleft">
          35 callsubr
          332 40 242 -90 callsubr
          -124 hmoveto
          118 25 -62 105 -121 hhcurveto
          -39 -36 -6 -15 -43 hvcurveto
          -1 -52 rlineto
          21 37 33 11 41 hhcurveto
          86 42 -85 -97 -20 hvcurveto
          -92 -20 -74 -90 -93 hhcurveto
          -59 -18 14 24 -31 hvcurveto
          -13 -45 rlineto
          -25 37 21 -9 55 hhcurveto
          122 106 106 117 25 hvcurveto
          endchar
        </CharString>
        <CharString name="copyright">
          35 callsubr
          242 40 94 40 198 -90 callsubr
          -204 -189 rmoveto
          6 45 rlineto
          -24 -42 -24 -14 -59 hhcurveto
          -92 -37 90 92 20 hvcurveto
          97 20 78 85 87 hhcurveto
          40 30 -11 -21 28 hvcurveto
          21 52 rlineto
          15 -37 -34 6 -39 hhcurveto
          -121 -106 -105 -118 -25 hvcurveto
          -116 -25 60 -107 123 hhcurveto
          54 26 9 25 48 hvcurveto
          endchar
        </CharString>
        <CharString name="copyright.alt">
          666 -111 40 100 40 446 40 hstem
          47 40 586 40 vstem
          713 222 rmoveto
          205 44 -101 128 -205 hhcurveto
          -204 -156 -128 -205 -44 hvcurveto
          -204 -43 101 -129 204 hhcurveto
          205 156 129 204 43 hvcurveto
          -40 hmoveto
          -180 -38 -137 -113 -180 hhcurveto
          -180 -89 113 180 38 hvcurveto
          180 38 137 113 180 hhcurveto
          180 89 -113 -180 -38 hvcurveto
          -176 -200 rmoveto
          6 47 rlineto
          -25 -44 -25 -15 -62 hhcurveto
          -98 -38 96 97 20 hvcurveto
          102 22 82 91 92 hhcurveto
          43 31 -12 -23 29 hvcurveto
          23 56 rlineto
          16 -40 -36 6 -41 hhcurveto
          -128 -112 -111 -125 -27 hvcurveto
          -123 -26 64 -113 130 hhcurveto
          58 26 10 26 51 hvcurveto
          endchar
        </CharString>
        <CharString name="currency">
          799 48 42 320 42 hstem
          159 42 50 42 320 42 49 42 vstem
          644 9 rmoveto
          18 15 -12 15 -8 10 -59 75 rcurveline
          36 34 26 44 10 48 10 48 -7 45 -22 34 91 75 rcurveline
          12 10 18 15 -11 15 -12 16 -17 -14 -13 -11 -91 -75 rcurveline
          27 -30 -40 17 -47 hhcurveto
          -48 -48 -17 -28 -40 hvcurveto
          -60 76 -9 12 -11 13 -18 -15 rlinecurve
          -18 -15 11 -15 8 -10 60 -76 rcurveline
          -35 -35 -27 -44 -10 -48 -10 -48 7 -44 20 -34 -91 -75 rcurveline
          -12 -10 -18 -15 12 -15 12 -16 16 14 14 11 91 75 rcurveline
          -28 29 40 -17 49 hhcurveto
          48 48 17 28 41 hvcurveto
          59 -75 8 -11 11 -14 19 16 rlinecurve
          -31 241 rmoveto
          -88 -19 -87 -72 -88 hhcurveto
          -89 -56 72 88 19 hvcurveto
          88 19 86 72 89 hhcurveto
          88 57 -72 -88 -19 hvcurveto
          endchar
        </CharString>
        <CharString name="cwm">
          0 endchar
        </CharString>
        <CharString name="cwmascender">
          0 endchar
        </CharString>
        <CharString name="cwmcapital">
          0 endchar
        </CharString>
        <CharString name="d">
          75 callgsubr
          239 -20 hstem
          83 83 101 83 14 83 68 80 vstem
          -79 callgsubr
          endchar
        </CharString>
        <CharString name="dagger">
          457 395 71 239 -20 hstemhm
          240 71 12 71 -60 71 hintmask 10010000
          491 430 101 callgsubr
          hintmask 01001000
          -31 -8 -15 -3 -14 -1 4 18 5 22 27 71 8 21 19 53 8 35 rrcurveto
          8 1 8 35 -35 hhcurveto
          -36 -7 -34 -9 -2 hvcurveto
          hintmask 10110000
          -5 -20 -4 -33 -2 -56 -5 -71 -3 -22 -4 -18 40 callgsubr
          23 hvcurveto
          31 8 15 3 14 1 -7 -23 -2 -8 -22 -53 -23 -56 -2 -11 -10 -49 -34 -160 -25 -178 -9 -72 rrcurveto
          -19 -2 0 -6 12 hhcurveto
          4 9 0 12 5 hvcurveto
          45 141 36 141 30 141 10 50 2 10 1 56 rrcurveto
          53 2 8 3 23 vhcurveto
          14 -1 13 -3 29 -8 rrcurveto
          -6 19 125 callgsubr
          endchar
        </CharString>
        <CharString name="daggerdbl">
          457 -61 71 -23 70 -23 71 hstemhm
          158 71 -45 71 -18 71 -53 71 -18 71 -46 71 -70 71 cntrmask 1110000000000000
          hintmask 1110000010000000
          501 477 101 callgsubr
          -31 -8 -15 -3 -14 -1 4 16 5 17 18 43 rrcurveto
          hintmask 1110000001000000
          19 46 10 31 5 22 rrcurveto
          hintmask 1110000100000000
          41 9 -30 0 -5 hhcurveto
          hintmask 1110001001000000
          -14 -23 -6 -35 -8 hvcurveto
          -6 -29 0 -35 -1 -32 -1 -48 -2 -12 -3 -19 40 callgsubr
          22 hvcurveto
          32 8 15 3 14 1 -4 -16 -5 -17 -18 -43 -19 -46 -10 -31 -5 -22 rrcurveto
          -41 -9 30 0 5 hhcurveto
          14 23 6 35 8 hvcurveto
          hintmask 1111010010000000
          6 29 0 35 1 32 1 48 2 12 3 19 14 -1 13 -3 28 -8 rrcurveto
          -6 20 125 callgsubr
          -96 -455 rmoveto
          20 4 -12 15 -20 hhcurveto
          -25 -20 -5 -10 -38 hvcurveto
          -24 -6 -7 0 -16 -2 5 18 5 17 24 56 13 33 10 31 4 19 rrcurveto
          41 9 -30 0 -5 hhcurveto
          -14 -23 -6 -35 -8 hvcurveto
          -4 -21 -3 -26 -1 -56 rrcurveto
          -34 -1 -16 -4 -21 vhcurveto
          -20 2 -2 0 -33 10 rrcurveto
          8 -28 -17 3 -19 hhcurveto
          -24 -15 -17 -18 -4 hvcurveto
          -19 -4 10 -16 22 hhcurveto
          21 23 4 9 35 hvcurveto
          28 8 4 0 18 2 -5 -18 -4 -17 -24 -56 -13 -33 -11 -31 -4 -19 rrcurveto
          hintmask 1110100000000000
          -41 -9 30 0 5 hhcurveto
          hintmask 1111010001000000
          14 24 6 35 7 hvcurveto
          5 21 2 26 1 56 rrcurveto
          34 2 16 3 21 vhcurveto
          21 -2 2 0 33 -10 rrcurveto
          -7 22 20 -4 21 hhcurveto
          22 18 16 19 4 hvcurveto
          endchar
        </CharString>
        <CharString name="dblbracketleft">
          414 -249 43 914 43 hstem
          204 43 151 43 vstem
          338 -249 rmoveto
          9 43 rlineto
          -100 hlineto
          194 914 rlineto
          100 hlineto
          10 43 rlineto
          -271 hlineto
          -213 -1000 rlineto
          137 105 callgsubr
        </CharString>
        <CharString name="dblbracketright">
          414 -249 43 914 43 hstem
          78 43 151 43 vstem
          240 -249 rmoveto
          213 1000 rlineto
          -270 hlineto
          -10 -43 rlineto
          99 hlineto
          -194 -914 rlineto
          -99 hlineto
          -9 -43 rlineto
          236 105 callgsubr
        </CharString>
        <CharString name="dblgrave.ts1">
          514 562 -21 185 -20 hstem
          347 541 rmoveto
          110 callgsubr
          235 hmoveto
          110 callgsubr
          endchar
        </CharString>
        <CharString name="dblverticalbar">
          412 750 -20 hstem
          75 43 83 43 29 43 83 43 vstem
          118 -215 rmoveto
          -4 callsubr
          126 hmoveto
          -4 callsubr
          endchar
        </CharString>
        <CharString name="dcaron">
          75 callgsubr
          68 -21 114 78 hstem
          83 83 101 83 14 83 68 80 vstem
          -79 callgsubr
          258 279 8 callsubr
        </CharString>
        <CharString name="dcroat">
          75 callgsubr
          80 68 91 -20 hstemhm
          83 83 101 83 14 83 34 80 -66 80 -60 80 hintmask 0010000010000000
          645 535 rmoveto
          14 68 rlineto
          -84 hlineto
          hintmask 0001000001000000
          20 91 rlineto
          -80 hlineto
          hintmask 0010000010000000
          -20 -91 rlineto
          -155 123 callgsubr
          hintmask 1110111100000000
          155 hlineto
          -29 -135 rlineto
          47 -46 -62 8 -32 hhcurveto
          -101 -101 -105 -128 -27 hvcurveto
          -129 -27 55 -104 98 hhcurveto
          30 64 7 56 72 hvcurveto
          -11 -52 rlineto
          83 hlineto
          114 535 rlineto
          -167 -394 rmoveto
          -4 -19 0 -2 -14 -14 rrcurveto
          -36 -35 -38 -16 -36 hhcurveto
          -65 -62 47 120 26 hvcurveto
          128 27 94 41 63 hhcurveto
          46 26 -26 -26 14 hvcurveto
          endchar
        </CharString>
        <CharString name="ddotbelow">
          531 -200 96 93 65 336 65 239 -20 hstemhm
          83 83 9 96 -75 96 -25 83 14 83 68 80 hintmask 0111100111000000
          -79 callgsubr
          hintmask 1000001000000000
          -165 -538 98 callsubr
        </CharString>
        <CharString name="degree">
          385 409 42 201 42 hstem
          167 42 201 42 vstem
          452 552 rmoveto
          79 17 -49 63 -79 hhcurveto
          -79 -78 -63 -79 -17 hvcurveto
          -79 -16 50 -64 79 hhcurveto
          79 77 64 79 16 hvcurveto
          -42 hmoveto
          -56 -12 -54 -45 -55 hhcurveto
          -56 -36 45 56 12 hvcurveto
          55 12 55 45 56 hhcurveto
          55 35 -45 -55 -12 hvcurveto
          endchar
        </CharString>
        <CharString name="diameter">
          799 -70 42 558 42 hstem
          131 42 558 42 vstem
          863 572 rmoveto
          12 2 -7 9 -12 hhcurveto
          -6 -5 -2 -4 -5 hvcurveto
          -114 -95 rlineto
          50 -47 -67 30 -81 hhcurveto
          -177 -175 -144 -177 -38 hvcurveto
          -17 -81 14 -75 38 -56 -115 -95 rcurveline
          -5 -4 -3 -5 -1 -6 rrcurveto
          114 callgsubr
          6 6 2 4 5 hvcurveto
          115 95 rlineto
          -49 45 68 -30 81 hhcurveto
          177 175 144 177 37 hvcurveto
          18 81 -15 74 -38 57 115 94 rcurveline
          5 4 3 5 2 6 rrcurveto
          -132 -321 rmoveto
          -154 -32 -152 -125 -154 hhcurveto
          -69 -59 25 42 -39 hvcurveto
          477 394 32 -49 11 -64 -15 -69 rlinecurve
          -52 211 rmoveto
          -476 -393 -32 49 -13 63 15 70 rlinecurve
          154 33 152 125 154 hhcurveto
          70 57 -25 -43 40 hvcurveto
          endchar
        </CharString>
        <CharString name="died">
          514 -6 -21 393 73 -71 73 187 -20 hstemhm
          209 84 0 84 -29 84 hintmask 00110010
          534 368 rmoveto
          16 73 rlineto
          -157 hlineto
          39 187 rlineto
          -84 hlineto
          hintmask 11001000
          -40 -189 rlineto
          -158 hlineto
          -15 -73 rlineto
          158 hlineto
          -84 -393 rlineto
          84 hlineto
          hintmask 00100100
          84 395 rlineto
          endchar
        </CharString>
        <CharString name="dieresis">
          514 568 86 85 callgsubr
          hintmask 10100000
          342 7 callsubr
        </CharString>
        <CharString name="dieresis.cap">
          514 486 86 hstemhm
          223 36 callsubr
          hintmask 10100000
          310 486 rmoveto
          19 -61 callgsubr
          hintmask 11001000
          -66 callgsubr
          hintmask 10010000
          -19 -86 rlineto
          endchar
        </CharString>
        <CharString name="dieresis.dup">
          514 568 86 85 callgsubr
          hintmask 10100000
          342 7 callsubr
        </CharString>
        <CharString name="dieresis.ts1">
          514 595 90 hstemhm
          238 90 -70 90 89 90 -70 90 hintmask 10100000
          328 595 rmoveto
          20 90 rlineto
          -90 hlineto
          hintmask 11001000
          -20 -90 rlineto
          289 hmoveto
          20 90 rlineto
          -90 hlineto
          hintmask 10010000
          -20 -90 rlineto
          endchar
        </CharString>
        <CharString name="discount">
          514 1 130 491 130 hstem
          232 130 vstem
          610 729 rmoveto
          11 2 -5 11 -12 hhcurveto
          -6 -1 -23 -4 -54 -93 -34 -46 rlinecurve
          -320 -445 -61 -87 -10 -15 -22 -22 -3 -15 rlinecurve
          -12 -3 7 -10 13 hhcurveto
          1 hlineto
          18 1 13 24 10 14 406 568 rcurveline
          53 75 10 13 17 19 3 14 rlinecurve
          -265 -87 rmoveto
          17 79 rlineto
          27 6 -14 4 -18 hhcurveto
          -64 hlineto
          -5 -5 0 -1 -4 hvcurveto
          -13 -2 -10 -10 -3 -13 -1 -5 0 -6 -1 -5 -13 -63 rcurveline
          -20 -5 11 -5 14 hhcurveto
          74 hlineto
          16 11 4 16 7 hvcurveto
          97 -609 rmoveto
          14 68 rlineto
          19 5 -6 11 -20 hhcurveto
          -71 hlineto
          -5 -5 0 -1 -4 hvcurveto
          -9 -1 -8 -7 -4 -8 -18 -87 rcurveline
          -24 -5 15 -2 16 hhcurveto
          67 hlineto
          19 13 5 27 6 hvcurveto
          endchar
        </CharString>
        <CharString name="divide">
          799 80 86 63 43 -22 86 0 86 hstemhm
          373 86 -68 86 -50 86 -67 86 hintmask 01000000
          794 250 rmoveto
          22 5 -22 0 -15 hhcurveto
          -610 hlineto
          hintmask 00100000
          -15 -22 0 -22 -5 hvcurveto
          hintmask 01000000
          -21 -4 20 0 13 hhcurveto
          618 hlineto
          hintmask 00100000
          14 19 0 21 4 hvcurveto
          -281 86 rmoveto
          hintmask 00010001
          19 97 callgsubr
          hintmask 00100010
          -19 -86 rlineto
          32 -256 rmoveto
          hintmask 10000100
          70 callgsubr
          hintmask 10001000
          82 callgsubr
        </CharString>
        <CharString name="divorced">
          514 -92 -21 141 76 -75 75 294 75 -75 76 141 -20 hstemhm
          -156 75 0 82 -18 84 76 82 -34 84 71 84 45 81 -4 84 hintmask 0101001011000000
          225 252 rmoveto
          107 22 -51 114 -119 hhcurveto
          -10 hlineto
          -119 -15 -82 -105 -22 -102 rrcurveto
          -103 -22 47 -120 114 hhcurveto
          123 96 119 105 23 hvcurveto
          551 hmoveto
          hintmask 0000100000000100
          104 22 -48 118 -114 hhcurveto
          hintmask 1011010100110100
          -5 -4 -1 -5 hhcurveto
          -119 -13 -85 -105 -22 -104 rrcurveto
          -108 -23 49 -114 120 hhcurveto
          10 hlineto
          119 14 82 105 23 104 rrcurveto
          -501 -365 rmoveto
          155 728 rlineto
          -84 hlineto
          -155 -728 rlineto
          -48 366 rmoveto
          -1 -5 -2 -4 -1 -4 rrcurveto
          -58 -17 -38 -78 -83 hhcurveto
          -79 -17 78 69 14 hvcurveto
          67 15 50 80 79 hhcurveto
          hintmask 0011000001001000
          78 16 -78 -67 -14 hvcurveto
          557 -2 rmoveto
          -69 -14 -51 -78 -79 hhcurveto
          -76 -12 70 67 7 hvcurveto
          68 15 43 89 87 hhcurveto
          77 18 -77 -70 -15 hvcurveto
          endchar
        </CharString>
        <CharString name="dlinebelow">
          531 -186 69 106 65 336 65 239 -20 hstemhm
          83 83 101 83 14 83 68 80 hintmask 01111111
          -79 callgsubr
          hintmask 10000000
          -26 -524 -60 callgsubr
        </CharString>
        <CharString name="dollar">
          514 -35 -21 49 68 572 68 49 -20 hstemhm
          214 62 -52 62 -47 62 60 62 -38 62 hintmask 0000000100000000
          498 197 rmoveto
          17 79 -27 102 -115 24 50 234 rcurveline
          58 -6 37 -22 31 -29 28 69 rcurveline
          -46 39 -45 13 -48 4 rrcurveto
          hintmask 0001001010000000
          9 46 rlineto
          -62 hlineto
          -10 -47 -99 -15 -90 -80 -20 -97 rlinecurve
          -15 -67 20 -99 123 -26 -55 -260 rcurveline
          -83 8 -50 43 -19 21 -28 -72 rcurveline
          hintmask 0000010000000000
          53 -47 61 -17 51 -5 rrcurveto
          hintmask 1000100000000000
          -10 -46 rlineto
          62 hlineto
          hintmask 0010010100000000
          10 48 109 18 83 92 20 95 rlinecurve
          -183 221 rmoveto
          -55 14 -23 46 10 48 8 37 34 54 72 16 rrcurveto
          56 -450 rmoveto
          hintmask 0100001000000000
          -11 -51 -41 -53 -64 -18 52 243 rcurveline
          49 -14 27 -49 -12 -58 rrcurveto
          endchar
        </CharString>
        <CharString name="dollar.oldstyle">
          627 -9 68 -62 -21 693 68 14 -20 hstemhm
          285 62 -12 62 -12 62 cntrmask 00001110
          hintmask 00011110
          613 202 rmoveto
          18 87 -45 76 -76 31 -7 3 -7 4 -8 1 55 258 rcurveline
          41 -10 36 -13 33 -21 6 -3 5 -4 6 -2 10 20 11 24 4 20 5 23 -117 29 -12 4 rrcurveto
          -8 2 -5 1 0 vvcurveto
          4 19 rlineto
          -62 hlineto
          hintmask 00101110
          -3 -14 rlineto
          -53 hlineto
          hintmask 01011110
          3 14 rlineto
          -62 hlineto
          -6 -25 -32 -11 -83 -32 -75 -63 -18 -84 rlinecurve
          -1 -3 -17 -84 59 -65 68 -26 rlinecurve
          14 -5 5 -3 0 vvcurveto
          -60 -283 -58 9 -49 28 -44 32 rlinecurve
          -8 -17 -6 -18 -6 -17 -2 -4 -3 -6 -1 -5 -7 -32 159 -38 11 -1 -5 -22 rcurveline
          62 hlineto
          hintmask 10001110
          3 15 rlineto
          53 hlineto
          hintmask 01101110
          -3 -15 rlineto
          62 hlineto
          5 26 rlineto
          0 33 11 17 8 vhcurveto
          75 36 69 64 17 81 rrcurveto
          -184 219 rmoveto
          -50 13 50 235 rlineto
          53 hlineto
          -161 -218 rmoveto
          -31 18 -51 20 14 64 11 52 55 30 45 19 rrcurveto
          168 -464 rmoveto
          -12 -56 -53 -37 -49 -22 48 228 rcurveline
          44 -16 33 -46 -11 -51 rrcurveto
          -179 -131 rmoveto
          hintmask 10001110
          -53 hlineto
          58 276 50 -13 rlineto
          endchar
        </CharString>
        <CharString name="dong">
          531 -68 68 hstem
          619 543 128 callgsubr
          -79 hlineto
          19 86 rlineto
          -76 hlineto
          -19 -86 rlineto
          -148 108 callsubr
          148 hlineto
          -27 -128 rlineto
          44 -44 -59 8 -31 hhcurveto
          -96 -95 -100 -121 -26 hvcurveto
          -123 -26 52 -99 93 hhcurveto
          29 62 7 53 68 hvcurveto
          -11 -49 rlineto
          79 hlineto
          108 508 rlineto
          -50 -611 rmoveto
          14 68 rlineto
          -470 123 callgsubr
          362 237 rmoveto
          -4 -18 0 -2 -14 -14 rrcurveto
          -34 -33 -36 -15 -34 hhcurveto
          -62 -58 45 114 24 hvcurveto
          121 26 89 39 60 hhcurveto
          43 26 -24 -25 13 hvcurveto
          endchar
        </CharString>
        <CharString name="dotaccent">
          286 563 96 hstemhm
          215 96 -76 96 hintmask 10100000
          311 563 34 callgsubr
        </CharString>
        <CharString name="dotaccent.alt">
          286 521 96 hstemhm
          206 96 -76 96 hintmask 10100000
          302 521 34 callgsubr
        </CharString>
        <CharString name="dotaccent.cap">
          286 486 96 hstemhm
          198 96 -75 96 hintmask 10100000
          294 486 -74 callsubr
          hintmask 11000000
          -38 callsubr
        </CharString>
        <CharString name="dotlessi">
          -5 callsubr
          hstem
          82 80 14 80 vstem
          -64 callsubr
          endchar
        </CharString>
        <CharString name="dotlessj">
          274 -205 68 581 91 callsubr
          hintmask 11011000
          -31 callgsubr
          hintmask 10100000
          -32 callsubr
          endchar
        </CharString>
        <CharString name="e">
          -53 callsubr
          hstem
          -106 callgsubr
          endchar
        </CharString>
        <CharString name="eacute">
          -53 callsubr
          87 -21 167 -20 -99 callgsubr
          hintmask 00011000
          95 416 -77 callgsubr
        </CharString>
        <CharString name="ebreve">
          -53 callsubr
          60 71 109 -20 -99 callgsubr
          hintmask 00011000
          125 423 -98 callgsubr
          72 -68 86 hhcurveto
          90 98 71 109 25 hvcurveto
          endchar
        </CharString>
        <CharString name="ecaron">
          -53 callsubr
          85 -21 172 -20 -99 callgsubr
          hintmask 00011000
          105 419 -80 callgsubr
        </CharString>
        <CharString name="ecircumflex">
          -53 callsubr
          85 -21 172 -20 -99 callgsubr
          hintmask 00011000
          69 247 -88 callsubr
          endchar
        </CharString>
        <CharString name="ecircumflexacute">
          -53 callsubr
          85 -21 291 -36 callgsubr
          107 291 9 callgsubr
        </CharString>
        <CharString name="ecircumflexdotbelow">
          457 -200 96 93 65 165 59 118 65 85 -21 172 -20 hstemhm
          138 96 -75 96 hintmask 01111100
          -106 callgsubr
          69 247 -88 callsubr
          hintmask 10000001
          -202 -725 -74 callsubr
          hintmask 10000010
          -38 callsubr
        </CharString>
        <CharString name="ecircumflexgrave">
          -53 callsubr
          85 -21 134 -36 callgsubr
          82 169 rmoveto
          -89 hlineto
          -172 122 rlineto
          111 hlineto
          endchar
        </CharString>
        <CharString name="ecircumflexhookabove">
          -53 callsubr
          85 -21 363 -20 hstemhm
          hintmask 11100000
          474 219 rmoveto
          6 31 15 76 -26 60 rrcurveto
          63 -29 -61 12 -38 hhcurveto
          -116 -115 -107 -128 -27 hvcurveto
          -132 -28 76 -105 125 hhcurveto
          48 60 12 37 66 hvcurveto
          9 69 rlineto
          -45 -73 -61 -8 -35 hhcurveto
          -83 -48 73 92 17 hvcurveto
          270 59 rmoveto
          -252 hlineto
          64 30 60 54 63 hhcurveto
          37 65 -17 -101 -3 hvcurveto
          hintmask 00011000
          70 247 -88 callgsubr
        </CharString>
        <CharString name="ecircumflextilde">
          -53 callsubr
          85 -21 189 65 -7 65 -99 callgsubr
          hintmask 00010100
          61 callgsubr
          140 312 -46 callsubr
          59 46 77 17 hvcurveto
          endchar
        </CharString>
        <CharString name="edblgrave">
          -53 callsubr
          87 -21 167 -20 -99 callgsubr
          hintmask 00011000
          61 249 -87 callgsubr
        </CharString>
        <CharString name="edieresis">
          -53 callsubr
          107 86 hstemhm
          226 -14 callgsubr
          hintmask 11100000
          -106 callgsubr
          hintmask 00010100
          -113 290 4 callsubr
          hintmask 00011001
          -63 callgsubr
          hintmask 00010010
          82 callgsubr
        </CharString>
        <CharString name="edotaccent">
          -53 callsubr
          102 96 hstemhm
          301 96 -76 96 hintmask 11100000
          -106 callgsubr
          hintmask 00010100
          -29 285 17 callgsubr
          hintmask 00011000
          -20 -96 rlineto
          endchar
        </CharString>
        <CharString name="edotbelow">
          457 -200 96 93 65 165 59 118 65 hstemhm
          138 96 -75 96 hintmask 01110000
          -106 callgsubr
          hintmask 10000100
          -192 -478 -56 callsubr
        </CharString>
        <CharString name="egrave">
          -53 callsubr
          87 -21 167 -20 -99 callgsubr
          hintmask 00011000
          -14 249 -49 callgsubr
        </CharString>
        <CharString name="ehookabove">
          -53 callsubr
          64 -21 214 -20 -99 callgsubr
          hintmask 00011000
          38 361 -101 callsubr
        </CharString>
        <CharString name="eight">
          514 43 callsubr
          hstem
          163 74 251 74 vstem
          508 -52 callsubr
          -16 callsubr
          -59 callsubr
        </CharString>
        <CharString name="eight.oldstyle">
          579 43 callsubr
          hstemhm
          196 124 callgsubr
          541 -52 callsubr
          hintmask 11001100
          -16 callsubr
          hintmask 11110110
          -59 callsubr
        </CharString>
        <CharString name="eight.prop">
          579 43 callsubr
          hstem
          196 74 251 74 vstem
          541 -52 callsubr
          -16 callsubr
          -59 callsubr
        </CharString>
        <CharString name="eight.taboldstyle">
          514 43 callsubr
          hstemhm
          163 124 callgsubr
          508 -52 callsubr
          hintmask 11001100
          -16 callsubr
          hintmask 11110110
          -59 callsubr
        </CharString>
        <CharString name="ellipsis">
          642 0 86 hstem
          118 86 92 86 92 86 cntrmask 01110000
          186 hmoveto
          29 callsubr
          264 hmoveto
          29 callsubr
          264 hmoveto
          29 callsubr
          endchar
        </CharString>
        <CharString name="emacron">
          -53 callsubr
          115 69 -99 callgsubr
          hintmask 00010000
          109 298 -60 callgsubr
        </CharString>
        <CharString name="emdash">
          1028 242 65 hstemhm
          51 1027 -1013 1027 hintmask 10100000
          1078 242 128 callgsubr
          -1027 hlineto
          hintmask 11000000
          -14 -65 rlineto
          endchar
        </CharString>
        <CharString name="emdash.alt">
          685 243 65 hstem
          736 243 rmoveto
          13 65 rlineto
          -684 hlineto
          -13 -65 rlineto
          endchar
        </CharString>
        <CharString name="endash">
          514 242 65 hstemhm
          51 513 -499 513 hintmask 10100000
          564 242 128 callgsubr
          -513 hlineto
          hintmask 11000000
          -14 -65 rlineto
          endchar
        </CharString>
        <CharString name="eng">
          531 -208 68 530 65 hstem
          81 129 callgsubr
          vstem
          -93 callsubr
          -68 -14 -32 -72 -58 hhcurveto
          -14 -68 rlineto
          98 80 101 107 23 hvcurveto
          endchar
        </CharString>
        <CharString name="eogonek">
          88 callgsubr
          -2 callgsubr
          hintmask 10111100
          1 callsubr
          endchar
        </CharString>
        <CharString name="eogonekacute">
          88 callgsubr
          87 -21 167 -20 -2 callgsubr
          hintmask 10111001
          1 callsubr
          hintmask 00000110
          95 416 -77 callgsubr
        </CharString>
        <CharString name="equal">
          799 124 43 167 43 hstemhm
          88 684 -640 684 hintmask 11010000
          816 355 32 callsubr
          -44 -209 rmoveto
          21 4 -19 0 -14 hhcurveto
          -618 hlineto
          hintmask 10100000
          109 callsubr
          610 hlineto
          15 22 0 22 5 hvcurveto
          endchar
        </CharString>
        <CharString name="ereversed">
          -53 callsubr
          hstem
          475 226 rmoveto
          128 27 -69 107 -116 hhcurveto
          -38 -67 -12 -63 -55 hvcurveto
          -52 -60 -17 -76 -6 -31 rrcurveto
          318 hlineto
          -92 -23 -80 -73 -83 hhcurveto
          -35 -57 8 45 -53 hvcurveto
          -21 -69 rlineto
          -37 50 56 -12 48 hhcurveto
          125 120 105 132 28 hvcurveto
          -69 52 rmoveto
          -252 hlineto
          101 41 71 17 37 hhcurveto
          63 38 -54 -64 2 hvcurveto
          endchar
        </CharString>
        <CharString name="estimated">
          690 -10 65 307 59 225 66 hstem
          737 362 rmoveto
          20 96 4 109 -58 68 rrcurveto
          52 -43 -72 25 -75 hhcurveto
          -206 -166 -185 -182 -39 hvcurveto
          -1 -7 -35 -178 109 -162 184 -8 rlinecurve
          19 hlineto
          68 2 73 6 69 19 54 15 rcurveline
          8 3 12 0 3 12 4 20 0 21 3 20 rrcurveto
          -31 -104 -85 -22 -97 hhcurveto
          -12 hlineto
          -128 10 -68 115 10 125 5 40 rcurveline
          2 6 rlineto
          10 2 5 1 7 hhcurveto
          455 59 rmoveto
          -448 hlineto
          115 48 109 110 127 hhcurveto
          109 72 -81 -144 -17 hvcurveto
          endchar
        </CharString>
        <CharString name="eth">
          -45 callsubr
          hstem
          536 245 rmoveto
          32 151 -36 139 -89 93 74 50 rcurveline
          -28 49 -89 -60 -35 25 -40 20 -44 13 rlinecurve
          -48 -53 35 -13 33 -17 29 -21 rlinecurve
          -75 -51 29 -49 90 61 38 -41 27 -50 15 -57 rlinecurve
          20 -35 -34 7 -30 hhcurveto
          -128 -124 -111 -130 -27 63 callgsubr
          85 -99 121 hhcurveto
          97 65 56 19 23 hvcurveto
          72 62 16 78 9 41 rrcurveto
          -88 -20 rmoveto
          -94 -20 -72 -74 -87 hhcurveto
          -77 -54 59 114 24 hvcurveto
          117 25 84 49 69 hhcurveto
          90 38 -78 -93 -20 hvcurveto
          endchar
        </CharString>
        <CharString name="etilde">
          -53 callsubr
          88 65 -7 65 -99 callgsubr
          hintmask 00001000
          115 394 -69 callsubr
          58 46 77 18 hvcurveto
          endchar
        </CharString>
        <CharString name="eturned">
          -24 callgsubr
        </CharString>
        <CharString name="exclam">
          326 0 86 112 -21 517 -20 hstemhm
          120 86 -68 86 44 86 hintmask 11101100
          354 694 rmoveto
          -86 hlineto
          -102 -517 rlineto
          70 hlineto
          -30 -177 95 callgsubr
          hintmask 10010000
          82 callgsubr
        </CharString>
        <CharString name="exclamdown">
          326 -173 -21 517 -20 111 86 hstemhm
          79 86 43 86 -68 86 hintmask 00100100
          294 414 95 callgsubr
          hintmask 11111000
          -18 -86 rlineto
          -43 -608 rmoveto
          93 474 9 43 rlineto
          -70 hlineto
          -9 -43 -109 -474 rlineto
          endchar
        </CharString>
        <CharString name="f">
          -23 callgsubr
        </CharString>
        <CharString name="f_f">
          600 21 -21 382 62 196 65 hstemhm
          103 80 1 80 124 80 -43 80 205 80 hintmask 11111011
          489 116 callgsubr
          5 -19 -29 6 -32 hhcurveto
          -100 -88 -75 -98 -21 hvcurveto
          -19 -88 -43 callsubr
          112 hlineto
          13 62 rlineto
          -115 hlineto
          25 116 rlineto
          71 15 66 9 30 hhcurveto
          10 31 0 -17 38 hvcurveto
          285 hmoveto
          16 71 rlineto
          5 -19 -29 6 -32 hhcurveto
          -100 -88 -75 -98 -21 hvcurveto
          hintmask 11100100
          -113 -532 rlineto
          80 hlineto
          81 382 rlineto
          112 hlineto
          13 62 rlineto
          -115 hlineto
          25 116 rlineto
          71 15 66 9 30 hhcurveto
          10 31 0 -17 38 hvcurveto
          endchar
        </CharString>
        <CharString name="f_f_i">
          836 21 -21 382 62 117 62 -14 86 -55 100 callgsubr
          14 80 hintmask 1101000001100000
          884 54 callgsubr
          -4 382 rmoveto
          13 62 rlineto
          -122 hlineto
          25 118 rlineto
          hintmask 0000100000000000
          63 14 38 15 26 hhcurveto
          34 23 -18 0 hvcurveto
          hintmask 0001000000000000
          16 73 rlineto
          hintmask 1100100100000000
          7 -21 -7 3 -31 hhcurveto
          -78 -76 -73 -99 -21 hvcurveto
          -113 -533 rlineto
          80 hlineto
          81 382 rlineto
          -89 241 rmoveto
          hintmask 1110111010000000
          1 callgsubr
          endchar
        </CharString>
        <CharString name="f_f_l">
          836 21 -21 382 62 117 62 17 100 callgsubr
          68 80 hintmask 1111110111000000
          460 623 rmoveto
          1 callgsubr
          292 -623 rmoveto
          148 694 7 callgsubr
          -4 382 rmoveto
          13 62 rlineto
          -122 hlineto
          25 118 rlineto
          63 14 38 15 26 hhcurveto
          29 22 -13 -4 6 hvcurveto
          16 71 rlineto
          3 -7 -23 8 -30 hhcurveto
          -74 -78 -70 -102 -22 hvcurveto
          hintmask 1100001000000000
          -113 -533 rlineto
          80 hlineto
          81 382 rlineto
          endchar
        </CharString>
        <CharString name="f_i">
          551 21 -21 382 62 165 86 -55 65 hstemhm
          103 80 1 80 123 80 14 80 hintmask 11100011
          599 54 callgsubr
          -3 382 rmoveto
          13 62 rlineto
          -123 hlineto
          25 118 rlineto
          hintmask 11011100
          64 14 40 14 24 hhcurveto
          18 22 -4 -15 18 hvcurveto
          16 73 rlineto
          3 -8 -23 8 -29 hhcurveto
          -76 -77 -71 -101 -22 hvcurveto
          -19 -89 -43 callsubr
          endchar
        </CharString>
        <CharString name="f_k">
          816 28 callgsubr
          273 76 -2 callsubr
          524 -382 rmoveto
          -40 callgsubr
          endchar
        </CharString>
        <CharString name="f_l">
          551 28 callgsubr
          123 80 68 80 -2 callsubr
          203 -382 rmoveto
          148 694 7 callgsubr
          endchar
        </CharString>
        <CharString name="five">
          514 -22 59 callsubr
          409 96 vstem
          505 -21 callgsubr
        </CharString>
        <CharString name="five.oldstyle">
          575 -216 59 callsubr
          405 96 vstem
          501 -20 callsubr
        </CharString>
        <CharString name="five.prop">
          575 -22 59 callsubr
          446 96 vstem
          542 -21 callgsubr
        </CharString>
        <CharString name="five.taboldstyle">
          514 -216 59 callsubr
          368 96 vstem
          464 -20 callsubr
        </CharString>
        <CharString name="florin">
          -23 callgsubr
        </CharString>
        <CharString name="four">
          514 21 -21 167 65 422 -20 hstem
          355 78 vstem
          519 5 callsubr
        </CharString>
        <CharString name="four.oldstyle">
          531 -173 -21 194 65 417 -20 hstemhm
          268 84 -43 84 -64 78 hintmask 01100100
          493 0 callgsubr
        </CharString>
        <CharString name="four.prop">
          531 21 -21 167 65 422 -20 hstem
          364 78 vstem
          528 5 callsubr
        </CharString>
        <CharString name="four.taboldstyle">
          514 -173 -21 194 65 417 -20 hstemhm
          259 84 -43 84 -64 78 hintmask 01100100
          484 0 callgsubr
        </CharString>
        <CharString name="fraction">
          575 661 674 59 callgsubr
          endchar
        </CharString>
        <CharString name="fraction.alt">
          0 374 674 59 callgsubr
          endchar
        </CharString>
        <CharString name="g">
          -43 callgsubr
          -11 callgsubr
          hintmask 0000010010000000
          53 callgsubr
          hintmask 1000100101000000
          -5 -25 -2 -37 20 -39 -25 -25 -16 -30 -6 -28 -6 -28 4 -28 11 -19 -59 -33 -21 -43 -6 -28 rrcurveto
          -73 -16 85 -62 129 hhcurveto
          hintmask 0110100000001000
          129 112 61 75 16 hvcurveto
          139 30 -166 2 -44 hhcurveto
          -92 hlineto
          -13 -45 0 52 11 hvcurveto
          4 20 6 6 6 8 rrcurveto
          -18 24 31 -11 34 hhcurveto
          hintmask 0001010010010000
          92 89 75 88 19 hvcurveto
          7 34 -4 28 -10 27 rrcurveto
          -3 5 0 2 0 vvcurveto
          5 1 49 0 13 hhcurveto
          8 37 0 -4 28 hvcurveto
          -200 -96 rmoveto
          -81 -17 -56 -23 -40 hhcurveto
          -46 -39 29 74 16 hvcurveto
          hintmask 0110001100110000
          81 17 56 23 40 hhcurveto
          46 39 -29 -74 -16 hvcurveto
          14 -363 rmoveto
          -44 -9 -80 -31 -80 hhcurveto
          -78 -70 29 47 10 hvcurveto
          0 14 65 77 vhcurveto
          94 hlineto
          hintmask 0000000000001000
          21 115 0 -66 -14 hvcurveto
          endchar
        </CharString>
        <CharString name="gacute">
          -43 callgsubr
          93 -21 167 -20 -11 callgsubr
          hintmask 0000010000100000
          581 388 -104 callgsubr
          hintmask 0000000110000000
          119 765 -77 callgsubr
        </CharString>
        <CharString name="gbreve">
          -43 callgsubr
          66 71 109 -20 -11 callgsubr
          hintmask 0000010000100000
          581 388 -104 callgsubr
          hintmask 0000000110000000
          149 772 -98 callgsubr
          72 -68 86 hhcurveto
          90 98 71 109 25 hvcurveto
          endchar
        </CharString>
        <CharString name="gcaron">
          -43 callgsubr
          91 -21 172 -20 -11 callgsubr
          hintmask 0000010000100000
          581 388 -104 callgsubr
          hintmask 0000000110001000
          129 768 -80 callgsubr
        </CharString>
        <CharString name="gcedilla">
          -43 callgsubr
          82 78 114 -20 -11 callgsubr
          hintmask 0000010110100000
          415 729 rmoveto
          -38 hlineto
          -64 -115 -17 -77 rlineto
          77 hlineto
          17 78 rlineto
          -23 hlineto
          214 -227 -104 callgsubr
          endchar
        </CharString>
        <CharString name="gcircumflex">
          -43 callgsubr
          91 -21 172 -20 -11 callgsubr
          hintmask 0000010000100000
          581 388 -104 callgsubr
          hintmask 0000000110000000
          93 596 -88 callsubr
          endchar
        </CharString>
        <CharString name="gcommaaccent">
          -43 callgsubr
          82 78 114 -20 -11 callgsubr
          hintmask 0000010110100000
          415 729 rmoveto
          -38 hlineto
          -64 -115 -17 -77 rlineto
          77 hlineto
          17 78 rlineto
          -23 hlineto
          214 -227 -104 callgsubr
          endchar
        </CharString>
        <CharString name="gdotaccent">
          -43 callgsubr
          108 96 hstemhm
          14 74 37 74 -61 74 -13 74 20 96 -76 96 -28 74 -60 74 hintmask 0000010001000000
          53 callgsubr
          hintmask 1000100010100000
          -5 -25 -2 -37 20 -39 -25 -25 -16 -30 -6 -28 -6 -28 4 -28 11 -19 -59 -33 -21 -43 -6 -28 rrcurveto
          -73 -16 85 -62 129 hhcurveto
          hintmask 0110100000000001
          129 112 61 75 16 hvcurveto
          139 30 -166 2 -44 hhcurveto
          -92 hlineto
          -13 -45 0 52 11 hvcurveto
          4 20 6 6 6 8 rrcurveto
          -18 24 31 -11 34 hhcurveto
          hintmask 0001010001000010
          92 89 75 88 19 hvcurveto
          7 34 -4 28 -10 27 rrcurveto
          -3 5 0 2 0 vvcurveto
          5 1 49 0 13 hhcurveto
          8 37 0 -4 28 hvcurveto
          -200 -96 rmoveto
          -81 -17 -56 -23 -40 hhcurveto
          -46 -39 29 74 16 hvcurveto
          hintmask 0110001010010010
          81 17 56 23 40 hhcurveto
          46 39 -29 -74 -16 hvcurveto
          14 -363 rmoveto
          -44 -9 -80 -31 -80 hhcurveto
          -78 -70 29 47 10 hvcurveto
          0 14 65 77 vhcurveto
          94 hlineto
          hintmask 0000000000000001
          21 115 0 -66 -14 hvcurveto
          hintmask 0000000100000100
          -6 634 17 callgsubr
          hintmask 0000000100001000
          -20 -96 rlineto
          endchar
        </CharString>
        <CharString name="germandbls">
          -49 callsubr
        </CharString>
        <CharString name="germandbls.dup">
          -49 callsubr
        </CharString>
        <CharString name="gnaborretni">
          485 -137 86 374 -20 111 86 hstemhm
          262 70 -7 70 hintmask 00101000
          71 callgsubr
          -59 -35 -53 -14 -41 -4 rlinecurve
          69 344 11 30 7 29 6 26 rlinecurve
          hintmask 01010000
          70 callsubr
          -15 -70 18 -71 101 -13 -5 -25 rcurveline
          68 hlineto
          5 24 rlineto
          hintmask 10001000
          49 5 62 14 65 33 rrcurveto
          -185 212 rmoveto
          -44 -197 -35 9 -13 25 11 52 rlinecurve
          10 44 17 16 16 13 13 13 14 12 11 13 rrcurveto
          endchar
        </CharString>
        <CharString name="grave">
          514 548 56 callgsubr
          hstem
          441 527 -49 callgsubr
        </CharString>
        <CharString name="grave.cap">
          514 517 123 callsubr
          hstem
          457 496 -68 callgsubr
        </CharString>
        <CharString name="grave.ts1">
          514 561 -21 186 -20 hstem
          418 540 rmoveto
          -95 185 -26 1 rlineto
          -57 hlineto
          114 -186 rlineto
          endchar
        </CharString>
        <CharString name="greater">
          799 -30 -21 603 -20 hstem
          765 251 rmoveto
          3 13 -10 6 -8 4 -506 271 rcurveline
          -13 7 -7 0 0 vvcurveto
          -13 -10 -11 -10 -2 hvcurveto
          -3 -12 5 -5 13 -7 480 -256 rcurveline
          -589 -257 -16 -7 -7 -5 -2 -12 rlinecurve
          -7 -2 3 -14 16 hhcurveto
          0 6 0 13 6 vhcurveto
          624 272 12 5 10 5 3 14 rlinecurve
          endchar
        </CharString>
        <CharString name="guarani">
          685 -22 68 188 65 281 68 0 68 hstemhm
          345 68 -68 83 -68 68 cntrmask 00001110
          hintmask 11101110
          621 27 rmoveto
          58 272 rlineto
          -216 108 callsubr
          133 hlineto
          -36 -168 rlineto
          -7 -24 -51 -13 -58 hhcurveto
          -19 -18 2 5 -16 hvcurveto
          125 588 rlineto
          5 18 19 2 19 hhcurveto
          81 49 -26 -42 43 hvcurveto
          35 86 rlineto
          hintmask 10011110
          42 -67 -71 8 -55 hhcurveto
          -19 -18 -2 -3 -19 hvcurveto
          18 85 rlineto
          -68 hlineto
          -22 -104 -141 -54 -115 -138 -32 -153 rlinecurve
          -33 -156 59 -136 115 -53 -22 -104 rcurveline
          68 hlineto
          18 84 rlineto
          -2 17 17 -2 18 hhcurveto
          69 80 17 32 75 hvcurveto
          -322 59 rmoveto
          -62 52 -25 99 24 110 23 109 67 99 84 53 rrcurveto
          endchar
        </CharString>
        <CharString name="guillemotleft">
          514 21 -21 438 -20 hstem
          286 23 callsubr
          236 23 callsubr
          endchar
        </CharString>
        <CharString name="guillemotright">
          514 21 -21 438 -20 hstem
          446 219 rmoveto
          -60 219 rlineto
          -65 hlineto
          41 -219 -134 -219 rlineto
          65 hlineto
          -18 66 callgsubr
        </CharString>
        <CharString name="guilsinglleft">
          343 21 -21 438 -20 hstem
          286 23 callsubr
          endchar
        </CharString>
        <CharString name="guilsinglright">
          343 21 -21 438 -20 hstem
          275 66 callgsubr
        </CharString>
        <CharString name="h">
          24 callsubr
          239 -20 hstem
          81 83 65 80 57 83 vstem
          -81 callsubr
          endchar
        </CharString>
        <CharString name="h_uni0303">
          24 callsubr
          239 -20 62 78 callsubr
          81 83 65 80 57 83 hintmask 11100111
          -81 callsubr
          hintmask 00001000
          252 859 -72 callsubr
        </CharString>
        <CharString name="hbar">
          24 callsubr
          80 68 91 -20 hstemhm
          81 83 31 80 -66 80 -60 80 57 83 hintmask 0110010000000000
          -11 callsubr
          -57 -60 -27 -45 -46 hvcurveto
          33 152 rlineto
          104 hlineto
          14 68 rlineto
          hintmask 0010001000000000
          -104 hlineto
          hintmask 0001000100000000
          20 91 rlineto
          -80 hlineto
          hintmask 0010001000000000
          -20 -91 rlineto
          -84 123 callgsubr
          hintmask 1110110010000000
          84 hlineto
          -114 -535 -90 callgsubr
          endchar
        </CharString>
        <CharString name="hbrevebelow">
          531 115 callsubr
          103 117 callgsubr
          239 -20 hstemhm
          81 83 65 80 57 83 hintmask 00111111
          -81 callsubr
          hintmask 11000010
          60 -62 -98 callgsubr
          72 -68 86 hhcurveto
          90 98 71 109 25 hvcurveto
          endchar
        </CharString>
        <CharString name="hcircumflex">
          24 callsubr
          239 -20 83 -21 134 -20 hstemhm
          81 83 65 80 57 83 hintmask 11100111
          -81 callsubr
          hintmask 00011000
          212 -3 callgsubr
        </CharString>
        <CharString name="hdieresis">
          24 callsubr
          239 -20 62 86 hstemhm
          81 83 65 80 -24 87 -68 87 -25 83 24 87 -68 87 hintmask 1110110010000000
          -81 callsubr
          hintmask 0001000100000000
          6 37 callsubr
        </CharString>
        <CharString name="hdotbelow">
          531 22 callgsubr
          390 65 239 -20 hstemhm
          81 83 10 96 -75 96 -62 80 57 83 hintmask 0111100110000000
          -81 callsubr
          hintmask 1000001000000000
          -96 -200 98 callsubr
        </CharString>
        <CharString name="hungarumlaut">
          514 548 56 callgsubr
          hstem
          404 694 -62 callgsubr
        </CharString>
        <CharString name="hungarumlaut.cap">
          514 517 56 callgsubr
          hstem
          397 663 -62 callgsubr
        </CharString>
        <CharString name="hungarumlaut.ts1">
          514 560 -21 187 -20 hstem
          410 726 102 callgsubr
          292 187 102 callgsubr
          endchar
        </CharString>
        <CharString name="hyphen">
          -1 callsubr
        </CharString>
        <CharString name="hyphen.alt">
          171 191 62 hstem
          326 49 callsubr
          -13 -62 rlineto
          endchar
        </CharString>
        <CharString name="hyphen.dup">
          -1 callsubr
        </CharString>
        <CharString name="hyphen.prop">
          343 302 62 hstem
          372 302 24 callgsubr
          -13 -62 rlineto
          endchar
        </CharString>
        <CharString name="hyphendbl">
          343 21 callgsubr
        </CharString>
        <CharString name="hyphendbl.alt">
          171 21 callgsubr
        </CharString>
        <CharString name="i">
          -5 callsubr
          139 96 hstemhm
          82 80 14 80 -61 96 -76 96 hintmask 11011000
          -64 callsubr
          hintmask 00100010
          209 106 callgsubr
          hintmask 00100100
          -20 -96 rlineto
          endchar
        </CharString>
        <CharString name="i_j">
          495 -205 68 700 96 hstemhm
          82 80 14 80 -62 96 -76 96 -72 80 108 80 -70 96 -76 96 hintmask 0100010000000000
          290 106 callgsubr
          hintmask 0100100001000000
          -20 -96 rlineto
          338 hmoveto
          20 96 -18 callgsubr
          hintmask 0111000010000000
          -20 -96 rlineto
          -274 -563 rmoveto
          71 callsubr
          -80 hlineto
          -94 -444 rlineto
          317 -59 rmoveto
          hintmask 1000001100000000
          107 503 rlineto
          -80 hlineto
          -108 -511 -4 -17 -4 -18 -24 -16 rlinecurve
          -12 -18 -19 -7 -25 hhcurveto
          -23 -28 8 23 -21 hvcurveto
          -30 -65 rlineto
          -28 44 46 -6 26 hhcurveto
          68 74 54 92 19 hvcurveto
          endchar
        </CharString>
        <CharString name="iacute">
          -5 callsubr
          124 87 callgsubr
          82 80 14 80 hintmask 11001100
          -64 callsubr
          hintmask 00110000
          365 694 -77 callgsubr
        </CharString>
        <CharString name="ibreve">
          -5 callsubr
          97 71 109 -20 hstemhm
          82 80 14 80 hintmask 11001100
          -64 callsubr
          hintmask 00111000
          364 -1 callgsubr
          endchar
        </CharString>
        <CharString name="icaron">
          -5 callsubr
          122 -21 172 -20 hstemhm
          82 80 14 80 hintmask 11001100
          -64 callsubr
          hintmask 00110000
          344 697 -80 callgsubr
        </CharString>
        <CharString name="icircumflex">
          -5 callsubr
          122 -21 172 -20 hstemhm
          82 80 14 80 hintmask 11001100
          -64 callsubr
          hintmask 00110000
          308 525 -88 callsubr
          endchar
        </CharString>
        <CharString name="idblgrave">
          -5 callsubr
          124 87 callgsubr
          82 80 14 80 hintmask 11001100
          -64 callsubr
          hintmask 00110000
          300 527 -87 callgsubr
        </CharString>
        <CharString name="idieresis">
          -5 callsubr
          144 86 104 callgsubr
          hintmask 1101001000000000
          -64 callsubr
          hintmask 0010010000000000
          126 -10 callsubr
          hintmask 0010100010000000
          -63 callgsubr
          hintmask 0010000100000000
          82 callgsubr
        </CharString>
</ttFont>
